<svg xmlns="http://www.w3.org/2000/svg" viewBox="0 0 100 100"><title>立即諮詢</title><g id="&#x5716;&#x5C64;_2" data-name="&#x5716;&#x5C64; 2"><path d="M64,34.3h-.34a3.23,3.23,0,0,0,2.06-3V20.09a3.22,3.22,0,0,0-3.21-3.23l-9.25,0c-11.68,0-15.82,8.5-15.82,15.78v1.7a3.23,3.23,0,0,0-3.12,3.23V50a3.23,3.23,0,0,0,3.12,3.23v28a3.23,3.23,0,0,0,3.23,3.23H53.12a3.23,3.23,0,0,0,3.23-3.23v-28h6.54a3.22,3.22,0,0,0,3.21-2.94l1.1-12.47A3.23,3.23,0,0,0,64,34.3Zm-4,12.47H53.12A3.23,3.23,0,0,0,49.89,50V78h-6V50a3.23,3.23,0,0,0-3.12-3.23v-6a3.23,3.23,0,0,0,3.12-3.23V32.61c0-3.48,1.22-9.33,9.35-9.33l6,0v4.75L56,28c-5.82,0-6.12,4.33-6.12,5.19v4.29a3.23,3.23,0,0,0,3.23,3.23h7.34Z" style="fill:#2d9d9b"></path><path d="M74,0H26C11,0,0,11,0,26V74C0,89,10.95,100,26,100H74c15.09,0,26-11,26-26V26C100,11,89,0,74,0Zm19.6,74c0,11.53-8.06,19.59-19.6,19.59H26C14.51,93.55,6.45,85.49,6.45,74V26C6.45,14.51,14.51,6.45,26,6.45H74c11.54,0,19.6,8.06,19.6,19.59Z" style="fill:#2d9d9b"></path></g></svg>