<svg xmlns="http://www.w3.org/2000/svg" viewBox="0 0 100 100.15"><title>立即諮詢</title><g id="&#x5716;&#x5C64;_2" data-name="&#x5716;&#x5C64; 2"><path d="M79.07,62a9.85,9.85,0,0,0-7.14-3.28A10.18,10.18,0,0,0,64.7,62L58,68.67c-.55-.3-1.1-.57-1.63-.85-.76-.38-1.48-.74-2.09-1.12A72.6,72.6,0,0,1,36.91,50.86a42.84,42.84,0,0,1-5.71-9c1.73-1.59,3.34-3.23,4.9-4.82l1.78-1.8c4.44-4.44,4.44-10.19,0-14.63l-5.77-5.77c-.65-.66-1.33-1.33-2-2-1.27-1.31-2.6-2.66-4-3.93a10,10,0,0,0-7.08-3.11A10.35,10.35,0,0,0,11.9,8.9l0,0L4.67,16.19A15.46,15.46,0,0,0,.09,26C-.42,32.19,1.4,37.94,2.79,41.7c3.42,9.24,8.54,17.8,16.17,27A99.47,99.47,0,0,0,52.08,94.61c4.86,2.3,11.35,5,18.6,5.49.44,0,.91,0,1.33,0a15.92,15.92,0,0,0,12.2-5.24s.06-.06.08-.11A47.87,47.87,0,0,1,88,91c.91-.87,1.84-1.78,2.75-2.73a10.54,10.54,0,0,0,3.19-7.31,10.16,10.16,0,0,0-3.25-7.25Zm7.57,22.26s0,0,0,0c-.82.89-1.67,1.69-2.58,2.58A55.57,55.57,0,0,0,80,91.1,10.19,10.19,0,0,1,72,94.46c-.32,0-.66,0-1,0C64.79,94,59,91.59,54.58,89.49a93.9,93.9,0,0,1-31.2-24.43c-7.21-8.69-12-16.72-15.22-25.34-2-5.26-2.68-9.36-2.37-13.23a9.7,9.7,0,0,1,2.92-6.28L15.92,13a4.8,4.8,0,0,1,3.21-1.5A4.53,4.53,0,0,1,22.22,13l.06.06c1.29,1.21,2.52,2.45,3.81,3.78l2,2.05,5.77,5.77c2.24,2.24,2.24,4.31,0,6.55-.61.61-1.2,1.23-1.82,1.82-1.78,1.82-3.47,3.51-5.3,5.16,0,0-.08.06-.11.11a4.31,4.31,0,0,0-1.1,4.8l.06.19a46.33,46.33,0,0,0,6.83,11.14l0,0A77.58,77.58,0,0,0,51.22,71.51a28.56,28.56,0,0,0,2.6,1.42c.76.38,1.48.74,2.09,1.12l.25.15a4.58,4.58,0,0,0,2.09.53,4.52,4.52,0,0,0,3.21-1.46L68.7,66a4.78,4.78,0,0,1,3.19-1.59,4.3,4.3,0,0,1,3,1.54L86.62,77.68c2.18,2.16,2.18,4.38,0,6.62Zm0,0" style="fill:#2d9d9b"></path><path d="M54,23.82A27.2,27.2,0,0,1,76.2,46,2.84,2.84,0,0,0,79,48.34a3.89,3.89,0,0,0,.49,0A2.86,2.86,0,0,0,81.84,45,32.89,32.89,0,0,0,55,18.2a2.87,2.87,0,0,0-3.3,2.33,2.82,2.82,0,0,0,2.3,3.3Zm0,0" style="fill:#2d9d9b"></path><path d="M100,44.18A54.16,54.16,0,0,0,55.82,0a2.85,2.85,0,1,0-.93,5.62A48.38,48.38,0,0,1,94.33,45.11a2.83,2.83,0,0,0,2.81,2.37,3.66,3.66,0,0,0,.49,0A2.8,2.8,0,0,0,100,44.18Zm0,0" style="fill:#2d9d9b"></path></g></svg>