<svg xmlns="http://www.w3.org/2000/svg" viewBox="0 0 100 95.67"><title>立即諮詢</title><g id="&#x5716;&#x5C64;_2" data-name="&#x5716;&#x5C64; 2"><path d="M32.14,48.15H25.36V30.92c0-1.28-1.17-2.13-2.92-2.13s-2.92.86-2.92,2.13v20.4c0,1.26,1.12,2.17,2.67,2.17h9.95c1.22,0,2.1-1.12,2.1-2.67S33.38,48.15,32.14,48.15Z" style="fill:#2d9d9b"></path><path d="M38.61,28.78c-1.75,0-2.92.86-2.92,2.13v20.4c0,1.27,1.2,2.17,2.92,2.17s2.92-.91,2.92-2.17V30.92C41.53,29.64,40.35,28.78,38.61,28.78Z" style="fill:#2d9d9b"></path><path d="M58.57,28.78c-1.75,0-2.92.86-2.92,2.13v9l-4.4-8.5c-1.07-2-1.93-2.64-3.82-2.64s-2.92.87-2.92,2.17V51.32c0,1.27,1.2,2.17,2.92,2.17s2.92-.91,2.92-2.17V42.21l5.1,9.53a3.3,3.3,0,0,0,3.12,1.74c1.69,0,2.92-.91,2.92-2.17V30.92C61.49,29.64,60.31,28.78,58.57,28.78Z" style="fill:#2d9d9b"></path><path d="M78.31,34.12c1.26,0,2.17-1.13,2.17-2.7s-.91-2.64-2.17-2.64H67.14c-1.55,0-2.67.91-2.67,2.17V51.32c0,1.26,1.12,2.17,2.67,2.17H78.31c1.26,0,2.17-1.11,2.17-2.64s-.91-2.7-2.17-2.7h-8V43.6H74.2a2.28,2.28,0,0,0,2.17-2.45,2.31,2.31,0,0,0-2.17-2.51H70.31V34.12Z" style="fill:#2d9d9b"></path><path d="M85.13,11.84C75.72,4.21,63.24,0,50,0S24.28,4.21,14.87,11.84C5.28,19.63,0,30,0,41.13c0,10.45,4.76,20.4,13.39,28a54,54,0,0,0,29.4,12.67V92.74a2.93,2.93,0,0,0,2.93,2.93c5.07,0,18.79-6.22,30.37-15.14a74.42,74.42,0,0,0,16.48-17C97.5,56.19,100,48.66,100,41.13,100,30,94.72,19.63,85.13,11.84Zm-12.62,64A97.87,97.87,0,0,1,55.74,86.27a54.11,54.11,0,0,1-7.09,2.9v-10a2.93,2.93,0,0,0-2.72-2.92C23.46,74.61,5.86,59.18,5.86,41.13,5.86,21.68,25.66,5.86,50,5.86S94.14,21.68,94.14,41.13C94.14,56.09,82.38,68.29,72.51,75.89Z" style="fill:#2d9d9b"></path></g></svg>