<svg xmlns="http://www.w3.org/2000/svg" viewBox="0 0 80 80"><title>首頁</title><g id="&#x5716;&#x5C64;_2" data-name="&#x5716;&#x5C64; 2"><path d="M40,36a1.34,1.34,0,0,1-.57-.13L16.77,25.21a1.33,1.33,0,0,1,0-2.41L39.43,12.13a1.33,1.33,0,0,1,1.14,0L63.23,22.79a1.33,1.33,0,0,1,0,2.41L40.57,35.87A1.34,1.34,0,0,1,40,36ZM20.47,24,40,33.19,59.53,24,40,14.81Z" style="fill:#fff"></path><path d="M40,46.67a1.34,1.34,0,0,1-.6-.14l-16-8a1.33,1.33,0,0,1-.74-1.19V27.14a1.33,1.33,0,0,1,1.9-1.21L40,33.19l15.43-7.26a1.33,1.33,0,0,1,1.9,1.21v10.2a1.33,1.33,0,0,1-.74,1.19l-16,8a1.34,1.34,0,0,1-.6.14ZM25.33,36.51,40,43.84l14.67-7.33V29.24l-14.1,6.63a1.33,1.33,0,0,1-1.14,0l-14.1-6.63Z" style="fill:#fff"></path><path d="M62.67,25.33H40a1.33,1.33,0,0,1,0-2.67H62.67a1.33,1.33,0,1,1,0,2.67Z" style="fill:#fff"></path><path d="M62.67,37.33A1.33,1.33,0,0,1,61.33,36V24A1.33,1.33,0,1,1,64,24V36A1.33,1.33,0,0,1,62.67,37.33Z" style="fill:#fff"></path><path d="M40,28a1.33,1.33,0,0,1-1.33-1.33V21.33a1.33,1.33,0,0,1,2.67,0v5.33A1.33,1.33,0,0,1,40,28Z" style="fill:#fff"></path><path d="M60,41.33a1.33,1.33,0,0,1-1.11-2.07l2.67-4a1.33,1.33,0,0,1,2.22,1.48l-2.67,4A1.33,1.33,0,0,1,60,41.33Z" style="fill:#fff"></path><path d="M65.33,41.33a1.33,1.33,0,0,1-1.11-.59l-2.67-4a1.33,1.33,0,0,1,2.22-1.48l2.67,4a1.33,1.33,0,0,1-1.11,2.07Z" style="fill:#fff"></path><path d="M40,40a1.33,1.33,0,0,1-1.33-1.33v-4a1.33,1.33,0,1,1,2.67,0v4A1.33,1.33,0,0,1,40,40Z" style="fill:#fff"></path><path d="M78.67,52H1.33A1.33,1.33,0,0,1,0,50.67v-44A5.34,5.34,0,0,1,5.33,1.33H74.67A5.34,5.34,0,0,1,80,6.67v44A1.33,1.33,0,0,1,78.67,52Zm-76-2.67H77.33V6.67A2.67,2.67,0,0,0,74.67,4H5.33A2.67,2.67,0,0,0,2.67,6.67Z" style="fill:#fff"></path><path d="M74.67,62.67H5.33A5.34,5.34,0,0,1,0,57.33V50.67a1.33,1.33,0,0,1,1.33-1.33H78.67A1.33,1.33,0,0,1,80,50.67v6.67A5.34,5.34,0,0,1,74.67,62.67ZM2.67,52v5.33A2.67,2.67,0,0,0,5.33,60H74.67a2.67,2.67,0,0,0,2.67-2.67V52Z" style="fill:#fff"></path><path d="M44,57.33H36a1.33,1.33,0,0,1,0-2.67h8a1.33,1.33,0,0,1,0,2.67Z" style="fill:#fff"></path><path d="M73.33,52H6.67a1.33,1.33,0,0,1-1.33-1.33V8A1.33,1.33,0,0,1,6.67,6.67H73.33A1.33,1.33,0,0,1,74.67,8V50.67A1.33,1.33,0,0,1,73.33,52ZM8,49.33H72v-40H8Z" style="fill:#fff"></path><path d="M57.33,78.67H22.67a4,4,0,1,1,0-8H57.33a4,4,0,0,1,0,8ZM22.67,73.33a1.33,1.33,0,0,0,0,2.67H57.33a1.33,1.33,0,1,0,0-2.67Z" style="fill:#fff"></path><path d="M54.67,73.33H25.33a1.33,1.33,0,0,1,0-2.67c4.42,0,6.67-3.14,6.67-9.33A1.33,1.33,0,0,1,33.33,60H46.67A1.33,1.33,0,0,1,48,61.33c0,6.19,2.24,9.33,6.67,9.33a1.33,1.33,0,0,1,0,2.67ZM31.83,70.67H48.17c-1.64-1.82-2.61-4.53-2.8-8H34.63C34.44,66.14,33.47,68.85,31.83,70.67Z" style="fill:#fff"></path></g></svg>