<svg xmlns="http://www.w3.org/2000/svg" viewBox="0 0 20 20"><title>首頁</title><g id="&#x5716;&#x5C64;_2" data-name="&#x5716;&#x5C64; 2"><path d="M19.11,3.22a2.44,2.44,0,0,0-1.74-.72H2.64A2.47,2.47,0,0,0,.17,5V15A2.47,2.47,0,0,0,2.64,17.5H17.36A2.47,2.47,0,0,0,19.83,15V5A2.45,2.45,0,0,0,19.11,3.22Zm-.53,11.89a1.22,1.22,0,0,1-1.21,1.13H2.64A1.22,1.22,0,0,1,1.42,15V5A1.22,1.22,0,0,1,2.64,3.76H17.36A1.22,1.22,0,0,1,18.58,5V15.12Z" style="fill:#2d9d9b"></path><path d="M12.67,9.88l4.7-4.22a.63.63,0,1,0-.84-.93L10,10.58,8.8,9.5l0,0L8.68,9.4,3.46,4.72a.63.63,0,0,0-.88.05.62.62,0,0,0,.05.88L7.39,9.91,2.65,14.35a.63.63,0,0,0,0,.89.64.64,0,0,0,.88,0l4.82-4.51L9.6,11.89a.64.64,0,0,0,.83,0l1.3-1.17,4.79,4.56a.62.62,0,0,0,.43.17.63.63,0,0,0,.43-1.08Z" style="fill:#2d9d9b"></path></g></svg>