<svg xmlns="http://www.w3.org/2000/svg" viewBox="0 0 130 130"><title>首頁</title><g id="&#x5716;&#x5C64;_2" data-name="&#x5716;&#x5C64; 2"><path d="M8.84,78.74a14.55,14.55,0,0,1-7.6-2.11,2.26,2.26,0,0,1-1.1-1.76v-.31A2.62,2.62,0,0,1,.79,72.8a2.77,2.77,0,0,1,1.9-1,3.5,3.5,0,0,1,.48,0,3.46,3.46,0,0,1,1.73.45A8.69,8.69,0,0,0,9,73.32a4.46,4.46,0,0,0,2.56-.6A2,2,0,0,0,12.4,71a1.71,1.71,0,0,0-.73-1.49,14.43,14.43,0,0,0-2.52-1.28L8.7,68,5.32,66.62A9.44,9.44,0,0,1,1.5,63.87,6.77,6.77,0,0,1,0,59.4a7.14,7.14,0,0,1,2.69-5.65,10.17,10.17,0,0,1,6.84-2.3,12.1,12.1,0,0,1,6.6,1.9,2.06,2.06,0,0,1,1,1.62,1.14,1.14,0,0,1,0,.28,2.48,2.48,0,0,1-.62,1.66,2.45,2.45,0,0,1-1.69.93,2.25,2.25,0,0,1-.55.07,3.27,3.27,0,0,1-1.48-.35,7.45,7.45,0,0,0-3.25-.73,4,4,0,0,0-2.31.59,1.88,1.88,0,0,0-.83,1.62,1.45,1.45,0,0,0,.19.74,2.69,2.69,0,0,0,.43.57,3.35,3.35,0,0,0,.81.54,10.57,10.57,0,0,0,1,.45l1.23.5a2.38,2.38,0,0,1,.38.14l3.28,1.31q5.18,2.07,5.18,7.22a7.5,7.5,0,0,1-2.71,5.82A10.62,10.62,0,0,1,8.84,78.74Z" style="fill:#2d9d9b"></path><path d="M34.2,78.26a2.88,2.88,0,0,1-2.14-.88,2.92,2.92,0,0,1-.86-2.12V57.53a.31.31,0,0,0-.35-.35H26.68a2.47,2.47,0,0,1-1.83-.78,2.63,2.63,0,0,1,0-3.7,2.47,2.47,0,0,1,1.83-.78H42a2.62,2.62,0,0,1,0,5.25H37.87a.31.31,0,0,0-.35.35V75.25a3,3,0,0,1-3,3Z" style="fill:#2d9d9b"></path><path d="M55.25,78.26a3,3,0,0,1-3-3V54.94a3,3,0,0,1,3-3H66.34a2.47,2.47,0,0,1,1.83.78,2.63,2.63,0,0,1,0,3.7,2.47,2.47,0,0,1-1.83.78H58.91a.31.31,0,0,0-.35.35v4.18a.31.31,0,0,0,.35.35h5.84a2.52,2.52,0,0,1,1.85.78,2.67,2.67,0,0,1,0,3.76,2.52,2.52,0,0,1-1.85.78H58.91a.31.31,0,0,0-.35.35v4.87a.31.31,0,0,0,.35.35h7.77a2.66,2.66,0,1,1,0,5.32Z" style="fill:#2d9d9b"></path><path d="M95,78.26a3.76,3.76,0,0,1-2.38-.81,3.86,3.86,0,0,1-1.38-2.09l-.69-2.8a.39.39,0,0,0-.42-.35H83a.39.39,0,0,0-.42.35l-.69,2.8a3.87,3.87,0,0,1-1.38,2.09,3.76,3.76,0,0,1-2.38.81h-.42a2.18,2.18,0,0,1-2.21-2.18,2.4,2.4,0,0,1,.1-.69L82,54.81a3.88,3.88,0,0,1,1.47-2.07,4,4,0,0,1,2.44-.79h1.55a4,4,0,0,1,2.4.79,3.87,3.87,0,0,1,1.47,2.07l6.39,20.58a1.85,1.85,0,0,1,.14.69,2.06,2.06,0,0,1-.45,1.28,2.1,2.1,0,0,1-1.8.9ZM84,67a.29.29,0,0,0,0,.24.23.23,0,0,0,.21.1h4.7a.23.23,0,0,0,.21-.1.29.29,0,0,0,0-.24l-.48-1.9q-.35-1.38-1-4.27t-1-4.13a.11.11,0,0,0-.1-.07.06.06,0,0,0-.07.07q-1.38,5.87-2,8.39Z" style="fill:#2d9d9b"></path><path d="M109.74,77.43a2.83,2.83,0,0,1-4.83-2V54.94a3,3,0,0,1,3-3h.83a4.17,4.17,0,0,1,2.45.78,4.33,4.33,0,0,1,1.59,2.06l3.14,8.53q.21.66.45,1.45t.52,1.76q.28,1,.45,1.52a.12.12,0,0,0,.12.07c.06,0,.09,0,.09-.07q.28-.83.74-2.42T119,63.3l3-8.53a4.13,4.13,0,0,1,1.55-2.06,4.17,4.17,0,0,1,2.45-.78h.86a3,3,0,0,1,3,3V75.39a2.88,2.88,0,0,1-5.77,0V69.24a88.85,88.85,0,0,1,.79-9s0-.07,0-.07a.11.11,0,0,0-.1.07l-2.18,6.22-2.94,8a2.38,2.38,0,0,1-.91,1.19,2.54,2.54,0,0,1-2.83,0,2.36,2.36,0,0,1-.92-1.19l-3-8-2.11-6.22a.11.11,0,0,0-.1-.07s-.06,0,0,.07a89.18,89.18,0,0,1,.79,9v6.18A2.73,2.73,0,0,1,109.74,77.43Z" style="fill:#2d9d9b"></path><path d="M18.41,99.76a4.69,4.69,0,1,0,4.69,4.69A4.7,4.7,0,0,0,18.41,99.76Zm2.46,4.69A2.46,2.46,0,1,1,18.41,102,2.47,2.47,0,0,1,20.88,104.45Z" style="fill:#2d9d9b"></path><path d="M33.78,90.88A3.25,3.25,0,0,0,28,87.94c-2.8-.11-6.11.9-9.61,2.9C12.32,87.36,6.75,87,3.85,89.89A7.25,7.25,0,0,0,1.9,95a3.24,3.24,0,0,0,1.31,6.15,26.88,26.88,0,0,0,1.59,3.26C1.32,110.55,1,116.12,3.85,119a7.32,7.32,0,0,0,5.32,2,19.33,19.33,0,0,0,9.24-2.9,19.34,19.34,0,0,0,9.24,2.9A7.32,7.32,0,0,0,33,119c2.9-2.9,2.53-8.47-1-14.56a21.71,21.71,0,0,0,2.79-7.59A8.71,8.71,0,0,0,33.78,90.88ZM4.37,97.95a1,1,0,1,1-1-1A1,1,0,0,1,4.37,97.95Zm26.39-7.24a1,1,0,1,1,1-1A1,1,0,0,1,30.75,90.71Zm-4.67,6.07a38.11,38.11,0,0,0-5.5-4.58,16.2,16.2,0,0,1,7-2,3.25,3.25,0,0,0,4.64,2.44,7.14,7.14,0,0,1,.42,4,18.35,18.35,0,0,1-1.94,5.72A38.14,38.14,0,0,0,26.09,96.78Zm0,15.35a38.07,38.07,0,0,0,4.58-5.5c2.42,4.72,2.71,8.84.73,10.81s-6.1,1.69-10.82-.73A38.09,38.09,0,0,0,26.09,112.13ZM10.74,96.78a38.15,38.15,0,0,0-4.58,5.5c-.3-.59-.58-1.18-.82-1.77A3.25,3.25,0,0,0,4.14,94.8a5,5,0,0,1,1.29-3.33c2-2,6.09-1.69,10.81.73A38.15,38.15,0,0,0,10.74,96.78Zm-4.58,9.85a39.26,39.26,0,0,0,10.08,10.08c-4.72,2.42-8.84,2.71-10.81.73S3.74,111.35,6.16,106.63Zm23.27-2.17a35.15,35.15,0,0,1-4.92,6.1,35.26,35.26,0,0,1-6.1,4.92,36.69,36.69,0,0,1-11-11,36.68,36.68,0,0,1,11-11,35.26,35.26,0,0,1,6.1,4.92A35.19,35.19,0,0,1,29.43,104.45Z" style="fill:#2d9d9b"></path><path d="M127.69,86.29H101.8a2.31,2.31,0,0,0-2.31,2.31v30.21a2.31,2.31,0,0,0,2.31,2.31h25.89a2.31,2.31,0,0,0,2.31-2.31V88.6A2.31,2.31,0,0,0,127.69,86.29Zm-9.32,23v9.61h-7.26v-9.61Zm0-11.79v9.61h-7.26V97.54Zm9.44-8.94v6.75H101.68V88.6a.13.13,0,0,1,.13-.13h25.89A.13.13,0,0,1,127.82,88.6Zm-18.88,8.94v9.61h-7.26V97.54Zm0,11.79v9.61H101.8a.13.13,0,0,1-.13-.13v-9.49Zm18.88-11.79v21.27a.13.13,0,0,1-.13.13h-7.13V97.54Z" style="fill:#2d9d9b"></path><path d="M103.3,103.43h.91v.92a1.09,1.09,0,0,0,2.18,0v-.92h.91a1.09,1.09,0,1,0,0-2.18h-.91v-.92a1.09,1.09,0,0,0-2.18,0v.92h-.91a1.09,1.09,0,1,0,0,2.18Z" style="fill:#2d9d9b"></path><path d="M112.7,103.43h4.09a1.09,1.09,0,1,0,0-2.18H112.7a1.09,1.09,0,1,0,0,2.18Z" style="fill:#2d9d9b"></path><path d="M103,116.46a1.12,1.12,0,0,0,1.54,0l.78-.78.78.78a1.09,1.09,0,1,0,1.54-1.54l-.78-.78.78-.78a1.09,1.09,0,0,0-1.54-1.54l-.78.78-.78-.78a1.09,1.09,0,0,0-1.54,1.54l.78.78-.78.78A1.09,1.09,0,0,0,103,116.46Z" style="fill:#2d9d9b"></path><path d="M113.19,116.78a1.09,1.09,0,0,0,.77-.32l3.11-3.11a1.09,1.09,0,0,0-1.54-1.54l-3.11,3.11a1.09,1.09,0,0,0,.77,1.86Z" style="fill:#2d9d9b"></path><circle cx="113.19" cy="112.58" r="0.97" style="fill:#2d9d9b"></circle><circle cx="116.3" cy="115.69" r="0.97" style="fill:#2d9d9b"></circle><path d="M122.09,107.91h4.15a1.09,1.09,0,1,0,0-2.18h-4.15a1.09,1.09,0,0,0,0,2.18Z" style="fill:#2d9d9b"></path><path d="M122.09,110.74h4.15a1.09,1.09,0,1,0,0-2.18h-4.15a1.09,1.09,0,0,0,0,2.18Z" style="fill:#2d9d9b"></path><path d="M66.13,94.37a9.34,9.34,0,1,0,9.33,9.34A9.35,9.35,0,0,0,66.13,94.37Zm7.16,9.34a7.16,7.16,0,1,1-7.16-7.16A7.17,7.17,0,0,1,73.3,103.71Z" style="fill:#2d9d9b"></path><path d="M81.5,99.45h-.94a15,15,0,0,0-1.21-2.93l.66-.66a2.22,2.22,0,0,0,0-3.13l-2.89-2.89a2.34,2.34,0,0,0-3.13,0l-.66.66a15,15,0,0,0-2.93-1.21v-.94a2.22,2.22,0,0,0-2.22-2.21H64.09a2.22,2.22,0,0,0-2.22,2.21v.94a15,15,0,0,0-2.93,1.22l-.66-.66a2.34,2.34,0,0,0-3.13,0l-2.89,2.89a2.22,2.22,0,0,0,0,3.13l.66.66a15,15,0,0,0-1.21,2.93h-.94a2.22,2.22,0,0,0-2.21,2.22v4.09A2.22,2.22,0,0,0,50.76,108h.94a15,15,0,0,0,1.21,2.93l-.66.66a2.22,2.22,0,0,0,0,3.13l2.89,2.89a2.34,2.34,0,0,0,3.14,0l.66-.66a15,15,0,0,0,2.93,1.21v.94a2.22,2.22,0,0,0,2.22,2.22h4.09a2.22,2.22,0,0,0,2.22-2.22v-.94a15.07,15.07,0,0,0,2.93-1.21l.66.66a2.28,2.28,0,0,0,3.13,0L80,114.7a2.22,2.22,0,0,0,0-3.13l-.66-.66A14.93,14.93,0,0,0,80.56,108h.94a2.22,2.22,0,0,0,2.22-2.22v-4.09A2.22,2.22,0,0,0,81.5,99.45Zm-2.72,6.69-.11.49a12.88,12.88,0,0,1-1.6,3.87l-.27.43a.45.45,0,0,0,.06.56l1.61,1.67-3,2.89-1.61-1.61a.45.45,0,0,0-.56-.06l-.43.27a12.79,12.79,0,0,1-3.87,1.6l-.49.11a.45.45,0,0,0-.35.44l0,2.32-4.13,0V116.8a.45.45,0,0,0-.35-.44l-.49-.11a12.86,12.86,0,0,1-3.87-1.6l-.43-.26a.45.45,0,0,0-.24-.07.44.44,0,0,0-.32.13L56.68,116l-2.89-3,1.61-1.61a.45.45,0,0,0,.06-.56l-.27-.43a12.78,12.78,0,0,1-1.6-3.87l-.11-.49a.45.45,0,0,0-.44-.35l-2.32,0,0-4.13H53a.45.45,0,0,0,.44-.35l.11-.49a12.76,12.76,0,0,1,1.6-3.87l.27-.43a.45.45,0,0,0-.07-.56l-1.61-1.67,3-2.89L58.35,93a.45.45,0,0,0,.56.07l.43-.27a12.81,12.81,0,0,1,3.87-1.6l.49-.11a.45.45,0,0,0,.35-.44l0-2.32,4.13,0v2.28a.45.45,0,0,0,.35.44l.49.11a12.78,12.78,0,0,1,3.87,1.6l.43.27a.46.46,0,0,0,.56-.07l1.67-1.61,2.89,3-1.61,1.61a.45.45,0,0,0-.06.56l.27.43a12.73,12.73,0,0,1,1.6,3.87l.11.49a.45.45,0,0,0,.44.35l2.32,0,0,4.13H79.22A.45.45,0,0,0,78.78,106.14Z" style="fill:#2d9d9b"></path><path d="M66.13,96.91a6.8,6.8,0,1,0,6.8,6.8A6.81,6.81,0,0,0,66.13,96.91Zm4.62,6.8a4.63,4.63,0,1,1-4.62-4.63A4.63,4.63,0,0,1,70.76,103.71Z" style="fill:#2d9d9b"></path><circle cx="97.98" cy="25.85" r="1.17" style="fill:#2d9d9b"></circle><path d="M90.91,34.37a8,8,0,0,0,1.57.15,8.27,8.27,0,0,0,2.43-.36,5.66,5.66,0,0,0,4.25-4.41,1.16,1.16,0,0,0-.22-.86,1.14,1.14,0,0,0-.76-.46,1.13,1.13,0,0,0-.87.22,1.16,1.16,0,0,0-.46.77,3.41,3.41,0,0,1-2.63,2.52A5.19,5.19,0,0,1,89,30.79a1.17,1.17,0,0,0-1.65-.07,1.17,1.17,0,0,0-.07,1.65A6.69,6.69,0,0,0,90.91,34.37Z" style="fill:#2d9d9b"></path><path d="M108.28,22.33a8.9,8.9,0,0,0-4.42-2.76,37.64,37.64,0,0,0,4.26-3.4c2.1-2,2.76-3.46,2.1-4.6s-2.63-1.31-6-.18A54.71,54.71,0,0,0,95,15.76l-1.16.69a3.56,3.56,0,0,1,.83-2.63,3.16,3.16,0,0,0,.45-3.34A3.33,3.33,0,0,0,92,8.71a18,18,0,0,0-12.19,4.91,18.28,18.28,0,0,0-5.92,11.83A18.62,18.62,0,0,0,92.33,45.82a19.72,19.72,0,0,0,7.75-1.51,17.51,17.51,0,0,0,5.73-3.9,17.25,17.25,0,0,0,3.54-5.3,15.49,15.49,0,0,0,1.26-5.76A10.32,10.32,0,0,0,108.28,22.33ZM88.41,25a4,4,0,0,0-.32-.7,3.89,3.89,0,0,0-.41-.59,36.84,36.84,0,0,1,3.72-2.94,8.56,8.56,0,0,1,.8,1.15,8.8,8.8,0,0,1,.62,1.32A37,37,0,0,1,88.41,25Zm-2.95,2.73a11.36,11.36,0,0,1-3.87.32,11.49,11.49,0,0,1,2.21-3.2,1.66,1.66,0,0,1,1.6,0,1.63,1.63,0,0,1,.67.64,1.65,1.65,0,0,1-.61,2.27Zm6.27-10-.81.54a39.75,39.75,0,0,0-5.28,4.16,4,4,0,0,0-3,.4c-1.5.86-3.26,4.33-4,5.79a1.17,1.17,0,0,0,1,1.66c.53,0,1.59.11,2.77.11a9.28,9.28,0,0,0,4.22-.64,4,4,0,0,0,1.84-2.34,39.29,39.29,0,0,0,6.27-2.5c1.38-.67,2.81-1.43,4.23-2.25.68-.4,1.36-.8,2-1.21,5.46.21,7.36,4.18,7.3,7.84-.1,6.82-6.22,14.17-15.95,14.17A16.23,16.23,0,0,1,92,11a1,1,0,0,1,1,.45.84.84,0,0,1-.18.88A5.7,5.7,0,0,0,91.73,17.75Zm14.53-3a44.54,44.54,0,0,1-6.07,4.5c-.78.49-1.58,1-2.39,1.45s-1.91,1.07-2.89,1.57a11,11,0,0,0-1.58-2.75l.5-.32c.75-.47,1.52-.94,2.3-1.39a54,54,0,0,1,8.5-4.06,12.5,12.5,0,0,1,3.26-.82A10.24,10.24,0,0,1,106.26,14.71Z" style="fill:#2d9d9b"></path><path d="M86.67,13.08A3.29,3.29,0,1,0,90,16.37,3.29,3.29,0,0,0,86.67,13.08Zm1,3.29a1,1,0,1,1-1-1A1,1,0,0,1,87.63,16.37Z" style="fill:#2d9d9b"></path><path d="M83.14,38.65a3.29,3.29,0,1,0-3.29-3.29A3.29,3.29,0,0,0,83.14,38.65Zm-1-3.29a1,1,0,1,1,1,1A1,1,0,0,1,82.18,35.36Z" style="fill:#2d9d9b"></path><path d="M90.21,42.89a3.29,3.29,0,1,0-3.29-3.29A3.29,3.29,0,0,0,90.21,42.89Zm-1-3.29a1,1,0,1,1,1,1A1,1,0,0,1,89.25,39.61Z" style="fill:#2d9d9b"></path><path d="M95.41,38.19a3.29,3.29,0,1,0,3.29-3.29A3.29,3.29,0,0,0,95.41,38.19Zm4.24,0a1,1,0,1,1-1-1A1,1,0,0,1,99.65,38.19Z" style="fill:#2d9d9b"></path><path d="M104.35,34.41a3.29,3.29,0,1,0-3.29-3.29A3.29,3.29,0,0,0,104.35,34.41Zm-1-3.29a1,1,0,1,1,1,1A1,1,0,0,1,103.39,31.12Z" style="fill:#2d9d9b"></path><path d="M55.68,11H24.1a2.45,2.45,0,0,0-2.45,2.45V35.24a2.45,2.45,0,0,0,2.45,2.45H34.64V39a2.35,2.35,0,0,1-2.34,2.34H29.91a1.11,1.11,0,1,0,0,2.22h20a1.11,1.11,0,0,0,0-2.22H47.48A2.35,2.35,0,0,1,45.14,39v-1.3H55.68a2.45,2.45,0,0,0,2.45-2.45V13.43A2.45,2.45,0,0,0,55.68,11ZM43.58,41.33H36.21A4.5,4.5,0,0,0,36.86,39v-1.3h6.07V39A4.5,4.5,0,0,0,43.58,41.33Zm12.34-27.9V29H23.87V13.43a.23.23,0,0,1,.23-.23H55.68A.23.23,0,0,1,55.92,13.43Zm0,17.74v4.07a.23.23,0,0,1-.23.23H24.1a.23.23,0,0,1-.23-.23V31.17Z" style="fill:#2d9d9b"></path><circle cx="39.89" cy="33.32" r="1.17" style="fill:#2d9d9b"></circle><path d="M41.83,17.56a1.1,1.1,0,0,0-.32-.78,1.13,1.13,0,0,0-1.57,0l-5.85,5.85a1.11,1.11,0,1,0,1.57,1.57l5.85-5.85A1.1,1.1,0,0,0,41.83,17.56Z" style="fill:#2d9d9b"></path><path d="M43.41,20.16,41.08,22.5a1.11,1.11,0,1,0,1.57,1.57L45,21.73a1.11,1.11,0,0,0-1.57-1.57Z" style="fill:#2d9d9b"></path></g></svg>