<svg xmlns="http://www.w3.org/2000/svg" viewBox="0 0 80 80"><title>首頁</title><g id="&#x5716;&#x5C64;_2" data-name="&#x5716;&#x5C64; 2"><path d="M55.64,19.74a1.49,1.49,0,0,0-.47-2.06,28.47,28.47,0,1,0,8.91,8.89,1.49,1.49,0,0,0-2.52,1.6A25.5,25.5,0,1,1,22,23.77a25.36,25.36,0,0,1,31.61-3.56A1.49,1.49,0,0,0,55.64,19.74Z" style="fill:#fff"></path><path d="M20.61,40.33H18.77a1.49,1.49,0,1,0,0,3h1.84a1.49,1.49,0,1,0,0-3Z" style="fill:#fff"></path><path d="M57.9,41.77a1.49,1.49,0,0,0,1.49,1.49h1.84a1.49,1.49,0,1,0,0-3H59.39A1.49,1.49,0,0,0,57.9,41.77Z" style="fill:#fff"></path><path d="M41.47,22.41V20.57a1.49,1.49,0,1,0-3,0v1.84a1.49,1.49,0,1,0,3,0Z" style="fill:#fff"></path><path d="M38.53,61.19V63a1.49,1.49,0,0,0,3,0V61.19a1.49,1.49,0,0,0-3,0Z" style="fill:#fff"></path><path d="M49.58,32.21a1.49,1.49,0,0,0-2.11,0l-5.05,5.05a5.13,5.13,0,0,0-4.84,0l-10.2-10.2a1.49,1.49,0,1,0-2.11,2.11l10.2,10.2a5.14,5.14,0,1,0,9.06,0l5.05-5.05A1.49,1.49,0,0,0,49.58,32.21ZM40,44a2.15,2.15,0,1,1,2.15-2.15A2.16,2.16,0,0,1,40,44Z" style="fill:#fff"></path><path d="M59.09,21.22a1.49,1.49,0,1,0,1.05.44A1.5,1.5,0,0,0,59.09,21.22Z" style="fill:#fff"></path><path d="M67,14.79A38.05,38.05,0,0,0,56.83,7.52a1.51,1.51,0,0,0-1.92,2.31,1.5,1.5,0,0,0,.56.35,35.2,35.2,0,1,1-43.7,10.57v1.64a1.49,1.49,0,0,0,3,0V16.72a1.49,1.49,0,0,0-1.49-1.49H7.59a1.49,1.49,0,1,0,0,3H10A38.2,38.2,0,1,0,67,14.79Z" style="fill:#fff"></path><path d="M16.38,12.55l.05.09a1.42,1.42,0,0,0,1.21.71,1.34,1.34,0,0,0,.78-.19,1.63,1.63,0,0,0,.52-.51,1.64,1.64,0,0,1,.54-.5,1.09,1.09,0,0,1,.86-.16,1.22,1.22,0,0,1,.72.62,1.2,1.2,0,0,1,.2.94,1.26,1.26,0,0,1-.64.73,2.33,2.33,0,0,1-1.17.29,1.36,1.36,0,0,0-.76.2l-.15.11a1.18,1.18,0,0,0-.49.88,1.36,1.36,0,0,0,.19.86l.09.14a1.29,1.29,0,0,0,.94.51h.23a5.51,5.51,0,0,0,2.84-.82A4.43,4.43,0,0,0,23.82,15a3.69,3.69,0,0,0,.58-2,4,4,0,0,0-.61-2.14,3.48,3.48,0,0,0-2.26-1.79,3.63,3.63,0,0,0-2.66.5,3.28,3.28,0,0,0-.51.38L18,9.28l2-1.17a1.4,1.4,0,0,0-.37-2.56,1.36,1.36,0,0,0-1.06.15L15.46,7.53a1.54,1.54,0,0,0-.72,1,1.58,1.58,0,0,0,.12,1.18Z" style="fill:#fff"></path><path d="M26.94,12.3a3.51,3.51,0,0,0,2.16.78,3.74,3.74,0,0,0,1.12-.18,3.46,3.46,0,0,0,2.36-2.36,7.19,7.19,0,0,0-.24-4.31A6.93,6.93,0,0,0,30.1,2.6a3.66,3.66,0,0,0-5.64,1.75,7,7,0,0,0,.24,4.26A7.23,7.23,0,0,0,26.94,12.3Zm.25-7.15a.93.93,0,0,1,.16-.42.53.53,0,0,1,.26-.16.65.65,0,0,1,.2,0l.13,0a1,1,0,0,1,.38.25,2.82,2.82,0,0,1,.51.79,11.76,11.76,0,0,1,.58,1.54,12.1,12.1,0,0,1,.4,1.62,3.1,3.1,0,0,1,0,1,1.08,1.08,0,0,1-.17.46.56.56,0,0,1-.57.18h0a1,1,0,0,1-.38-.28,3.36,3.36,0,0,1-.52-.84,12,12,0,0,1-.59-1.56,11.78,11.78,0,0,1-.4-1.6A2.85,2.85,0,0,1,27.19,5.15Z" style="fill:#fff"></path><path d="M35.39,10a3.43,3.43,0,0,0,2.77,1.36h.28a3.46,3.46,0,0,0,2.85-1.75,7.19,7.19,0,0,0,.77-4.25,6.93,6.93,0,0,0-1.34-4,3.66,3.66,0,0,0-5.9.39,7,7,0,0,0-.76,4.2A7.22,7.22,0,0,0,35.39,10Zm1.72-6a2.86,2.86,0,0,1,.18-.93,1,1,0,0,1,.25-.37.53.53,0,0,1,.3-.1h.05a.53.53,0,0,1,.26.06,1,1,0,0,1,.31.33,2.73,2.73,0,0,1,.31.89A11.58,11.58,0,0,1,39,5.57a12.11,12.11,0,0,1,0,1.67,3.09,3.09,0,0,1-.19,1,1.07,1.07,0,0,1-.27.41.5.5,0,0,1-.29.11.49.49,0,0,1-.3-.07h0a1,1,0,0,1-.3-.36,3.29,3.29,0,0,1-.31-.94,11.92,11.92,0,0,1-.21-1.65A11.73,11.73,0,0,1,37.11,4Z" style="fill:#fff"></path><path d="M44.78,6.84l1.49.25L46,8.69a1.28,1.28,0,0,0,1.05,1.46l.22,0A1.28,1.28,0,0,0,48.53,9.1l.26-1.6,1.5.25a1.22,1.22,0,0,0,.92-.21,1.2,1.2,0,0,0,.51-.81,1.25,1.25,0,0,0-1-1.43L49.2,5.05l.26-1.57a1.26,1.26,0,0,0-.22-1A1.25,1.25,0,0,0,48.41,2a1.23,1.23,0,0,0-1,.22,1.26,1.26,0,0,0-.52.83l-.26,1.57-1.49-.25a1.21,1.21,0,0,0-.93.22,1.24,1.24,0,0,0-.5.81,1.23,1.23,0,0,0,1,1.42Z" style="fill:#fff"></path></g></svg>