<svg xmlns="http://www.w3.org/2000/svg" viewBox="0 0 130 130"><title>首頁</title><g id="&#x5716;&#x5C64;_2" data-name="&#x5716;&#x5C64; 2"><path d="M27.59,90.61a2,2,0,1,1-2-2A2,2,0,0,1,27.59,90.61Z" style="fill:#2d9d9b"></path><path d="M47.28,98.48a2,2,0,1,1-2-2A2,2,0,0,1,47.28,98.48Z" style="fill:#2d9d9b"></path><path d="M86.66,98.48a2,2,0,1,1-2-2A2,2,0,0,1,86.66,98.48Z" style="fill:#2d9d9b"></path><path d="M106.34,90.61a2,2,0,1,1-2-2A2,2,0,0,1,106.34,90.61Z" style="fill:#2d9d9b"></path><path d="M15.78,51.23a2,2,0,0,0-2,2v7.87A5.91,5.91,0,0,0,19.72,67h2A9.84,9.84,0,0,0,26,75.14a7.84,7.84,0,0,0-2.37,5.62h-2a5.91,5.91,0,0,0-5.91,5.91v35.44a2,2,0,0,0,2,2h94.5a2,2,0,0,0,2-2V86.67a5.91,5.91,0,0,0-5.91-5.91h-2A7.84,7.84,0,0,0,104,75.14,9.84,9.84,0,0,0,108.31,67h2a5.91,5.91,0,0,0,5.91-5.91V53.2a2,2,0,1,0-3.94,0v7.87a2,2,0,0,1-2,2h-2a9.84,9.84,0,0,0-8.08-9.66A35.46,35.46,0,0,0,66.95,21.8s0-.06,0-.1V17.4a5.91,5.91,0,1,0-3.94,0v4.3s0,.06,0,.1A35.46,35.46,0,0,0,29.77,53.38,9.85,9.85,0,0,0,21.69,63h-2a2,2,0,0,1-2-2V53.2A2,2,0,0,0,15.78,51.23Zm74.81,68.91H39.41V94.54a2,2,0,0,1,2-2H88.62a2,2,0,0,1,2,2ZM108.31,84.7a2,2,0,0,1,2,2v33.47H94.53V94.54a5.91,5.91,0,0,0-5.91-5.91H41.37a5.91,5.91,0,0,0-5.91,5.91v25.59H19.72V86.67a2,2,0,0,1,2-2Zm-5.91-3.94H27.59a3.94,3.94,0,0,1,3.94-3.94H98.47A3.94,3.94,0,0,1,102.41,80.76Zm2-17.72V67a5.92,5.92,0,0,1-3.94,5.57V57.47A5.92,5.92,0,0,1,104.37,63ZM65,9.89a2,2,0,1,1-2,2A2,2,0,0,1,65,9.89Zm0,15.75a31.54,31.54,0,0,1,31.5,31.5V72.89h-63V57.14A31.54,31.54,0,0,1,65,25.64ZM25.62,63a5.92,5.92,0,0,1,3.94-5.57V72.55A5.92,5.92,0,0,1,25.62,67Z" style="fill:#2d9d9b"></path><path d="M55.59,99.55l-6,6a2,2,0,0,0,0,2.83l6,6,2.83-2.83L53.83,107l4.59-4.59Z" style="fill:#2d9d9b"></path><path d="M74.41,114.38l6-6a2,2,0,0,0,0-2.83l-6-6-2.83,2.83L76.17,107l-4.59,4.59Z" style="fill:#2d9d9b"></path><path d="M61.06,114.48l4-16,3.88,1-4,16Z" style="fill:#2d9d9b"></path><rect x="53.4" y="51.23" width="32.79" height="5.5" rx="2.75" ry="2.75" style="fill:#2d9d9b"></rect><circle cx="46.56" cy="53.98" r="2.75" style="fill:#2d9d9b"></circle></g></svg>