<svg xmlns="http://www.w3.org/2000/svg" viewBox="0 0 17 15"><title>首頁</title><g id="&#x5716;&#x5C64;_2" data-name="&#x5716;&#x5C64; 2"><path d="M4.22,8.45,5.73,6.9a.62.62,0,0,0,.06-.79L5.63,5.9a.55.55,0,0,0-.44-.23.55.55,0,0,0-.4.17L2.6,8a.57.57,0,0,0,0,.8l2.18,2.21a.55.55,0,0,0,.4.17h0A.55.55,0,0,0,5.63,11l.16-.22A.62.62,0,0,0,5.73,10Z" style="fill:#fff"></path><path d="M9.58,5.52H9.29A.7.7,0,0,0,8.64,6L6.94,10.7a.52.52,0,0,0,.06.48.53.53,0,0,0,.43.22h.29a.71.71,0,0,0,.65-.46l1.7-4.74A.5.5,0,0,0,10,5.73.53.53,0,0,0,9.58,5.52Z" style="fill:#fff"></path><path d="M12.23,5.84a.55.55,0,0,0-.4-.17.55.55,0,0,0-.44.23l-.16.22a.62.62,0,0,0,.06.79l1.51,1.55L11.28,10a.62.62,0,0,0-.06.79l.16.22a.55.55,0,0,0,.44.23h0a.55.55,0,0,0,.4-.17l2.18-2.21a.57.57,0,0,0,0-.8Z" style="fill:#fff"></path><path d="M15.59,0H1.41A1.39,1.39,0,0,0,0,1.37V13.63A1.39,1.39,0,0,0,1.41,15H15.59A1.39,1.39,0,0,0,17,13.63V1.37A1.39,1.39,0,0,0,15.59,0ZM5.53,1.34a.47.47,0,1,1-.48.47A.48.48,0,0,1,5.53,1.34Zm-1.71,0a.47.47,0,1,1-.48.47A.48.48,0,0,1,3.82,1.34Zm-1.71,0a.47.47,0,1,1-.48.47A.48.48,0,0,1,2.11,1.34ZM15.59,13.63H1.41V3.24H15.59v10.4Z" style="fill:#fff"></path></g></svg>