<svg xmlns="http://www.w3.org/2000/svg" viewBox="0 0 80 80"><title>首頁</title><g id="&#x5716;&#x5C64;_2" data-name="&#x5716;&#x5C64; 2"><path d="M48.67,41.33A4.67,4.67,0,1,0,53.33,46,4.67,4.67,0,0,0,48.67,41.33Zm0,6.67a2,2,0,1,1,2-2A2,2,0,0,1,48.67,48Z" style="fill:#fff"></path><path d="M28,18.67H14.67a1.33,1.33,0,1,0,0,2.67H28a1.33,1.33,0,0,0,0-2.67Z" style="fill:#fff"></path><path d="M10.67,28h6.67a1.33,1.33,0,1,0,0-2.67H10.67a1.33,1.33,0,1,0,0,2.67Z" style="fill:#fff"></path><path d="M28,30.67H10.67a1.33,1.33,0,1,0,0,2.67H28a1.33,1.33,0,1,0,0-2.67Z" style="fill:#fff"></path><path d="M17.33,36H10.67a1.33,1.33,0,1,0,0,2.67h6.67a1.33,1.33,0,1,0,0-2.67Z" style="fill:#fff"></path><path d="M28,25.33H24A1.33,1.33,0,0,0,24,28h4a1.33,1.33,0,0,0,0-2.67Z" style="fill:#fff"></path><path d="M45.33,18.67A1.33,1.33,0,0,0,44,20v6.67H38.67V20A1.33,1.33,0,0,0,36,20v8a1.33,1.33,0,0,0,1.33,1.33h8A1.33,1.33,0,0,0,46.67,28V20A1.33,1.33,0,0,0,45.33,18.67Z" style="fill:#fff"></path><path d="M54.67,18.67h-4a1.33,1.33,0,1,0,0,2.67h4a1.33,1.33,0,1,0,0-2.67Z" style="fill:#fff"></path><path d="M52,24H50.67a1.33,1.33,0,1,0,0,2.67H52A1.33,1.33,0,0,0,52,24Z" style="fill:#fff"></path><path d="M68,6.67A1.33,1.33,0,0,0,66.67,8v8a1.33,1.33,0,0,0,2.67,0V8A1.33,1.33,0,0,0,68,6.67Z" style="fill:#fff"></path><path d="M80,42.67v-36A6.67,6.67,0,0,0,73.33,0h-64A6.67,6.67,0,0,0,2.67,6.67v36a6.67,6.67,0,0,0,6.67,6.67H36V52a4,4,0,0,0,.25,1.33H36a4,4,0,0,0-4,4V64a4,4,0,0,0,4,4H76a4,4,0,0,0,4-4V57.33a4,4,0,0,0-2.67-3.75V49.33a12,12,0,0,0-.09-1.3A6.63,6.63,0,0,0,80,42.67ZM38.67,52V38.67A1.33,1.33,0,0,1,40,37.33H57.33a1.33,1.33,0,0,1,1.33,1.33V53.33H40A1.33,1.33,0,0,1,38.67,52Zm20-18.67a6.69,6.69,0,1,1,2.67,5.32h0A4,4,0,0,0,58.91,35,6.56,6.56,0,0,1,58.67,33.33Zm16,16v4H72V50.67A2.67,2.67,0,0,0,69.33,48h-8V41.76a9.24,9.24,0,0,0,8.76-.41A9.25,9.25,0,0,1,74.67,49.33Zm-13.33,4V50.67h8v2.67ZM77.33,64A1.33,1.33,0,0,1,76,65.33H36A1.33,1.33,0,0,1,34.67,64V57.33A1.33,1.33,0,0,1,36,56H76a1.33,1.33,0,0,1,1.33,1.33Zm0-21.33A3.94,3.94,0,0,1,76.52,45a11.89,11.89,0,0,0-4.25-5.49A9.33,9.33,0,1,0,56,33.33a9.15,9.15,0,0,0,.12,1.33H40a4,4,0,0,0-4,4v8H9.33a4,4,0,0,1-4-4v-36a4,4,0,0,1,4-4h64a4,4,0,0,1,4,4Z" style="fill:#fff"></path><path d="M58.67,6.67H21.33A1.33,1.33,0,0,0,20,8v5.33a1.33,1.33,0,0,0,1.33,1.33h9.33a1.33,1.33,0,0,0,0-2.67h-8V9.33H57.33V12H38.67a1.33,1.33,0,1,0,0,2.67h20A1.33,1.33,0,0,0,60,13.33V8A1.33,1.33,0,0,0,58.67,6.67Z" style="fill:#fff"></path><path d="M60,72a6.67,6.67,0,0,0-5.33,2.67,6.67,6.67,0,0,0-10.67,0,6.67,6.67,0,0,0-10.67,0,6.67,6.67,0,0,0-10.67,0,6.67,6.67,0,0,0-10.67,0,6.67,6.67,0,0,0-12,4,1.33,1.33,0,0,0,2.67,0,4,4,0,0,1,8,0,1.33,1.33,0,0,0,2.67,0,4,4,0,0,1,8,0,1.33,1.33,0,0,0,2.67,0,4,4,0,0,1,8,0,1.33,1.33,0,0,0,2.67,0,4,4,0,0,1,8,0,1.33,1.33,0,0,0,2.67,0,4,4,0,0,1,8,0,1.33,1.33,0,0,0,2.67,0,4,4,0,1,1,8,0,1.33,1.33,0,0,0,2.67,0A6.67,6.67,0,0,0,60,72Z" style="fill:#fff"></path></g></svg>