<svg xmlns="http://www.w3.org/2000/svg" viewBox="0 0 20 20"><title>首頁</title><g id="&#x5716;&#x5C64;_2" data-name="&#x5716;&#x5C64; 2"><path d="M6.43,10.06H5.07V6.62c0-.26-.23-.43-.58-.43s-.58.17-.58.43V10.7a.47.47,0,0,0,.53.43h2c.24,0,.42-.22.42-.53S6.68,10.06,6.43,10.06Z" style="fill:#2d9d9b"></path><path d="M7.72,6.19c-.35,0-.58.17-.58.43V10.7c0,.25.24.43.58.43s.58-.18.58-.43V6.62C8.31,6.36,8.07,6.19,7.72,6.19Z" style="fill:#2d9d9b"></path><path d="M11.71,6.19c-.35,0-.58.17-.58.43v1.8l-.88-1.7c-.21-.41-.39-.53-.76-.53s-.58.17-.58.43V10.7c0,.25.24.43.58.43s.58-.18.58-.43V8.87l1,1.91a.66.66,0,0,0,.62.35c.34,0,.58-.18.58-.43V6.62C12.3,6.36,12.06,6.19,11.71,6.19Z" style="fill:#2d9d9b"></path><path d="M15.66,7.26c.25,0,.43-.23.43-.54a.47.47,0,0,0-.43-.53H13.43a.47.47,0,0,0-.53.43V10.7a.47.47,0,0,0,.53.43h2.23a.47.47,0,0,0,.43-.53c0-.31-.18-.54-.43-.54h-1.6V9.15h.78a.46.46,0,0,0,.43-.49.46.46,0,0,0-.43-.5h-.78v-.9Z" style="fill:#2d9d9b"></path><path d="M17,2.8A11.14,11.14,0,0,0,10,.43,11.14,11.14,0,0,0,3,2.8,7.52,7.52,0,0,0,0,8.66a7.47,7.47,0,0,0,2.68,5.61A10.81,10.81,0,0,0,8.56,16.8V19a.59.59,0,0,0,.59.59c1,0,3.76-1.24,6.07-3a14.88,14.88,0,0,0,3.3-3.4A8,8,0,0,0,20,8.66,7.52,7.52,0,0,0,17,2.8ZM14.5,15.61a19.57,19.57,0,0,1-3.35,2.08,10.82,10.82,0,0,1-1.42.58v-2a.59.59,0,0,0-.54-.58c-4.49-.33-8-3.41-8-7,0-3.89,4-7.05,8.83-7.05s8.83,3.16,8.83,7.05C18.83,11.65,16.48,14.09,14.5,15.61Z" style="fill:#2d9d9b"></path></g></svg>