<svg xmlns="http://www.w3.org/2000/svg" viewBox="0 0 80 80"><title>首頁</title><g id="&#x5716;&#x5C64;_2" data-name="&#x5716;&#x5C64; 2"><path d="M17.8,32.67a1.59,1.59,0,1,0,1.59,1.59A1.59,1.59,0,0,0,17.8,32.67Z" style="fill:#fff"></path><path d="M76.48,29.5a6.35,6.35,0,0,0-6.34-6.34H58.29A39.83,39.83,0,0,0,60.72,8a18.06,18.06,0,0,0-.11-1.82,6.34,6.34,0,0,0-12.68.15V7.93C47.93,18,35,23.6,25.33,26A4.76,4.76,0,0,0,21,23.15H5.11a1.59,1.59,0,0,0-1.59,1.59V62.8a1.59,1.59,0,0,0,1.59,1.59H21a4.76,4.76,0,0,0,4.35-2.82l2.24.58a51.44,51.44,0,0,0,16,2.24H60.62a6.34,6.34,0,0,0,5.27-9.87A6.36,6.36,0,0,0,69.07,45a6.34,6.34,0,0,0,3.16-9.51A6.35,6.35,0,0,0,76.48,29.5ZM22.56,59.63A1.59,1.59,0,0,1,21,61.22H6.7V26.33H21a1.59,1.59,0,0,1,1.59,1.59Zm47.58-27H62.2a1.59,1.59,0,1,0,0,3.17H67a3.17,3.17,0,0,1,0,6.34H59a1.59,1.59,0,0,0,0,3.17h4.76a3.17,3.17,0,1,1,0,6.34H55.86a1.59,1.59,0,1,0,0,3.17h4.76a3.17,3.17,0,0,1,0,6.34H43.56c-7,0-9.75-.72-15.2-2.14l-2.63-.68V29.18C37.2,26.45,51.1,19.78,51.1,7.93V6.34a3.17,3.17,0,0,1,6.34,0h0c0,.69.86,9.15-2.59,16.81H49.52a1.59,1.59,0,1,0,0,3.17H70.13a3.17,3.17,0,0,1,0,6.34Z" style="fill:#fff"></path><path d="M17.8,39a1.59,1.59,0,0,0-1.59,1.59V53.29a1.59,1.59,0,1,0,3.17,0V40.6A1.59,1.59,0,0,0,17.8,39Z" style="fill:#fff"></path><path d="M14.16,73.58a1,1,0,0,0-.82-.69l-2.46-.36L9.78,70.3A1,1,0,0,0,8,70.3l-1.1,2.23-2.46.36a1,1,0,0,0-.56,1.73l1.78,1.74-.42,2.45a1,1,0,0,0,1.47,1.07l2.2-1.16,2.2,1.16a1,1,0,0,0,1.47-1.07l-.42-2.45,1.78-1.74A1,1,0,0,0,14.16,73.58Z" style="fill:#fff"></path><path d="M27.3,73.58a1,1,0,0,0-.82-.69L24,72.53l-1.1-2.23a1,1,0,0,0-1.82,0L20,72.53l-2.46.36A1,1,0,0,0,17,74.62l1.78,1.74-.42,2.45a1,1,0,0,0,1.47,1.07L22,78.72l2.2,1.16a1,1,0,0,0,1.47-1.07l-.42-2.45L27,74.62A1,1,0,0,0,27.3,73.58Z" style="fill:#fff"></path><path d="M40.44,73.58a1,1,0,0,0-.82-.69l-2.46-.36L36,70.3a1,1,0,0,0-1.82,0l-1.1,2.23-2.46.36a1,1,0,0,0-.56,1.73l1.78,1.74-.42,2.45a1,1,0,0,0,1.47,1.07l2.2-1.16,2.2,1.16a1,1,0,0,0,1.47-1.07l-.42-2.45,1.78-1.74A1,1,0,0,0,40.44,73.58Z" style="fill:#fff"></path><path d="M53.57,73.58a1,1,0,0,0-.82-.69l-2.46-.36-1.1-2.23a1,1,0,0,0-1.82,0l-1.1,2.23-2.46.36a1,1,0,0,0-.56,1.73L45,76.36l-.42,2.45a1,1,0,0,0,1.47,1.07l2.2-1.16,2.2,1.16A1,1,0,0,0,52,78.81l-.42-2.45,1.78-1.74A1,1,0,0,0,53.57,73.58Z" style="fill:#fff"></path><path d="M66.71,73.58a1,1,0,0,0-.82-.69l-2.46-.36-1.1-2.23a1,1,0,0,0-1.82,0l-1.1,2.23-2.46.36a1,1,0,0,0-.56,1.73l1.78,1.74-.42,2.45a1,1,0,0,0,1.47,1.07l2.2-1.16,2.2,1.16a1,1,0,0,0,1.47-1.07l-.42-2.45,1.78-1.74A1,1,0,0,0,66.71,73.58Zm-2.5,1.71q-.16-.8-.36-1.6l1.74.25Z" style="fill:#fff"></path></g></svg>