<svg xmlns="http://www.w3.org/2000/svg" viewBox="0 0 20 20"><title>首頁</title><g id="&#x5716;&#x5C64;_2" data-name="&#x5716;&#x5C64; 2"><path d="M12.79,6.86h-.07a.65.65,0,0,0,.41-.6V4a.64.64,0,0,0-.64-.65H10.65A3,3,0,0,0,7.48,6.52v.34a.65.65,0,0,0-.62.65V10a.65.65,0,0,0,.62.65v5.59a.65.65,0,0,0,.65.65h2.49a.65.65,0,0,0,.65-.65V10.65h1.31a.64.64,0,0,0,.64-.59l.22-2.49a.65.65,0,0,0-.64-.7ZM12,9.35H10.62A.65.65,0,0,0,10,10v5.59H8.77V10a.65.65,0,0,0-.62-.65V8.15a.65.65,0,0,0,.62-.65v-1a1.69,1.69,0,0,1,1.87-1.87h1.2v1H11.2c-1.16,0-1.22.87-1.22,1v.86a.65.65,0,0,0,.65.65h1.47Z" style="fill:#2d9d9b"></path><path d="M14.79,0H5.21A5,5,0,0,0,0,5.21v9.58A5,5,0,0,0,5.21,20h9.58A5,5,0,0,0,20,14.79V5.21A5,5,0,0,0,14.79,0Zm3.92,14.79a3.75,3.75,0,0,1-3.92,3.92H5.21a3.75,3.75,0,0,1-3.92-3.92V5.21A3.75,3.75,0,0,1,5.21,1.29h9.58a3.75,3.75,0,0,1,3.92,3.92Z" style="fill:#2d9d9b"></path></g></svg>