<svg xmlns="http://www.w3.org/2000/svg" viewBox="0 0 20 20"><title>首頁</title><g id="&#x5716;&#x5C64;_2" data-name="&#x5716;&#x5C64; 2"><path d="M16.63,12.68c-2.4-1.93-3.39-.92-4.27,0l-.13.14c-.05,0-.32,0-.83-.35a13.85,13.85,0,0,1-2.07-1.78C7.11,8.45,7.2,7.81,7.18,7.81l.16-.16c.89-.88,1.91-1.88,0-4.27a2.8,2.8,0,0,0-2-1.25A3.18,3.18,0,0,0,3,3.48l-.26.28c-.74.74-.77,2.21-.08,4a16.94,16.94,0,0,0,3.9,5.7,16.94,16.94,0,0,0,5.7,3.9,6.84,6.84,0,0,0,2.34.49,2.33,2.33,0,0,0,1.69-.57l.28-.27a3.25,3.25,0,0,0,1.35-2.34A2.8,2.8,0,0,0,16.63,12.68Zm-1,3.45-.3.28c-.29.3-1.31.32-2.7-.21A15.68,15.68,0,0,1,7.4,12.6,15.68,15.68,0,0,1,3.79,7.34c-.52-1.38-.5-2.41-.2-2.7l.29-.3c.43-.45.92-1,1.38-1h0c.31,0,.68.28,1.08.78,1.22,1.51.92,1.81.12,2.59l-.16.16C5.19,8,6.86,10,8.44,11.56a15.08,15.08,0,0,0,2.27,1.94c1,.68,1.84.74,2.37.21l.16-.17c.79-.79,1.08-1.09,2.59.12.5.4.77.77.78,1.08s-.5.94-1,1.38l.26.27h0Z" style="fill:#2d9d9b"></path></g></svg>