<svg xmlns="http://www.w3.org/2000/svg" viewBox="0 0 150 68.12"><title>首頁</title><g id="&#x5716;&#x5C64;_2" data-name="&#x5716;&#x5C64; 2"><path d="M56.69,32.54c.67,0,1.53-.35,3.42-1.88q.08.29.14.57a25.69,25.69,0,0,1-4.75,7.37l-.08.1a2.27,2.27,0,0,0-.52,1.37,1.91,1.91,0,0,0,2,2c.69,0,1.4-.42,2.71-1.59q.67-.6,1.33-1.31c-.08,3.15-.48,4.64-.81,5.33a1.42,1.42,0,0,1-1.42.93H57.39a2,2,0,1,0,0,4h2.68a5.55,5.55,0,0,0,4.33-1.61l.26-.32a2.21,2.21,0,0,0,2.32,2c.94,0,2.91-.28,9.07-2.68a2.41,2.41,0,0,0,1.21-.92q.51.49,1.08,1c2.78,2.26,3.94,2.57,4.7,2.57a1.91,1.91,0,0,0,2-2,2.07,2.07,0,0,0-1-1.7l-.07,0A12.92,12.92,0,0,1,81,43.12a14.67,14.67,0,0,0,2-1.19l0,0a2.49,2.49,0,0,0,1.05-2A2.67,2.67,0,0,0,83.31,38l0,0a2.78,2.78,0,0,0-.7-.47,3.65,3.65,0,0,0,.71-2.3V33.39a3.35,3.35,0,0,0-1.45-3h1a2.14,2.14,0,0,0,1.61-.61,1.87,1.87,0,0,0,.51-1.37A1.9,1.9,0,0,0,84.4,27a2.13,2.13,0,0,0-1.61-.61H77.23V26h4.52a2,2,0,1,0,0-4H77.18a2.84,2.84,0,0,0-5.63,0H67.85a2.41,2.41,0,0,0-1.12.25,2.78,2.78,0,0,0-.93-1.84l-.06-.05a3.3,3.3,0,0,0-2.15-.77,2.54,2.54,0,0,0-2.34,1.32l0,0-.51,1c-1.31-1.52-2.31-2.17-3.27-2.17a1.92,1.92,0,0,0-2,2,2.12,2.12,0,0,0,.61,1.41,26.3,26.3,0,0,1,2.18,2.92A29.11,29.11,0,0,1,55.47,29a2,2,0,0,0-.76,1.59A1.88,1.88,0,0,0,56.69,32.54Zm9.86,5.33a3.58,3.58,0,0,0,1.69.82,17.09,17.09,0,0,1-1.7,1.16q0-.54,0-1.11T66.55,37.87Zm7.3,5.37v-2.3A14.11,14.11,0,0,0,74.92,43Zm3.8-9.47v1.06H71.11V33.77Zm1.31,5L78.8,39l0-.16ZM66.34,30.41h.61a3,3,0,0,0-1.17,1.41q-.2-.81-.44-1.6A2.56,2.56,0,0,0,66.34,30.41ZM66,44.48a7.18,7.18,0,0,0,2.42-.8v.65c-1.51.24-1.94.33-2.15.38h0l-.32.12Zm-.11-19.7a2,2,0,0,0,2,1.18H71.5v.47H66.34a2,2,0,0,0-2,1.17L64.06,27A15.07,15.07,0,0,0,65.88,24.78Z" style="fill:#fff"></path><path d="M89.6,38a18,18,0,0,1-1.43,7.39v0c-.31.73-.44,1-.5,1.16a1.3,1.3,0,0,0-.22.72,1.91,1.91,0,0,0,2,2c.93,0,1.76-.67,2.91-2.39.55,1.34,1.87,2.1,3.77,2.1h6.61c2.52,0,4-1.36,4-3.64V43.28a2.63,2.63,0,0,0,2,.89A2.58,2.58,0,0,0,111,43v2.39s0,.06,0,.09h-1.87a2,2,0,1,0,0,4h3a4.93,4.93,0,0,0,3.09-.82,3.84,3.84,0,0,0,1.39-3.28V22.7c0-1.56-.73-3.23-2.79-3.23S111,21.11,111,22.66a2.61,2.61,0,0,0-2.28-1.18c-2,0-2.71,1.62-2.71,3.14v1.33a13.05,13.05,0,0,1-3.76-4A5.83,5.83,0,0,0,101,20.18l0,0a4.52,4.52,0,0,0-2.68-.68,4.09,4.09,0,0,0-3.67,1.9,18.72,18.72,0,0,1-5.84,6.16l0,0a2.22,2.22,0,0,0-1.18,1.88,1.88,1.88,0,0,0,1.95,2,2.57,2.57,0,0,0,.58-.07,4.67,4.67,0,0,0-.43,2.05Zm8.09,7V43.23h3.42V45Zm-.1-18.79.64-.66q.33.34.68.66ZM106,40.66a3.23,3.23,0,0,0-1.35-1A3.08,3.08,0,0,0,106,38Zm0-9.14a3.1,3.1,0,0,0-.9-1.28,3,3,0,0,0,.9.18Z" style="fill:#fff"></path><path d="M122.2,45.74a2.12,2.12,0,0,0-1.38,1.92,1.91,1.91,0,0,0,2,2c.59,0,1.52-.19,4-1.6a18.52,18.52,0,0,0,8.56-9.77,28.57,28.57,0,0,0,1.35-8.49h6.95c0,4.63-.13,8.21-.37,10.65-.3,3-.75,4.06-1,4.43v0c-.09.15-.31.5-1.23.5h-2.91A1.94,1.94,0,0,0,136,47.35a2,2,0,0,0,2.15,2h3.76a8.56,8.56,0,0,0,3.37-.51,5.45,5.45,0,0,0,3.09-3.58c.83-2.45,1.23-7.38,1.23-15.07A4.86,4.86,0,0,0,149,27.6l0,0a4.37,4.37,0,0,0-3.91-1.72h-8.34V22.7c0-1.59-.78-3.29-3-3.29s-2.88,1.7-2.88,3.29v3.15h-7.78A1.94,1.94,0,0,0,121,27.8a2,2,0,0,0,2.15,2h7.74a26.64,26.64,0,0,1-1.4,8.45A15.23,15.23,0,0,1,122.2,45.74Z" style="fill:#fff"></path><path d="M67.41,62.87a1.63,1.63,0,0,0,.3-2.92,1.65,1.65,0,0,0,.45-2.79,2.54,2.54,0,0,0,.3-1.24v-2a2.35,2.35,0,0,0-2.58-2.42H61.79a3.5,3.5,0,0,0-1.07.15h0A1.92,1.92,0,0,0,59.25,51a2.8,2.8,0,0,0-1,.24l-.64.21a13.51,13.51,0,0,1-2.47.47h0a1.66,1.66,0,0,0-1.55,1.65,1.56,1.56,0,0,0,.74,1.36,1.58,1.58,0,0,0-.8,1.41A1.61,1.61,0,0,0,55.2,58a10.22,10.22,0,0,1-1.47,2.89l0,0a1.9,1.9,0,0,0-.38,1.07A1.58,1.58,0,0,0,55,63.59a1.54,1.54,0,0,0,.68-.16v1A2.07,2.07,0,0,0,59.14,66a1.9,1.9,0,0,0,.62.1h7.62a1.63,1.63,0,1,0,0-3.26Zm-3-8.09v.31H63.25v-.31Zm-4.67,7.8a1.62,1.62,0,0,0,.51.29h-.51Z" style="fill:#fff"></path><path d="M84.66,61l-.13-.09a2.25,2.25,0,0,0-1.19-.34,1.81,1.81,0,0,0-1.47.69l-.07.1-.08.15a13.61,13.61,0,0,1-1.08-4.28h2.92a1.62,1.62,0,0,0,1.71-1.64A1.57,1.57,0,0,0,84.15,54c0-1.08-1-1.78-1.92-2.27a3.25,3.25,0,0,0-1.65-.64,1.64,1.64,0,0,0-.92.27,2.11,2.11,0,0,0-1.3-.41,2.06,2.06,0,0,0-2.13,2.23c0,.19,0,.44,0,.74H71.4a1.61,1.61,0,0,0-1.71,1.62,1.58,1.58,0,0,0,1,1.52A1.56,1.56,0,0,0,70,58.45a1.61,1.61,0,0,0,1.71,1.62h.49v2.22l-1,.2-.08,0a1.89,1.89,0,0,0-1.47,1.87,2,2,0,0,0,.41,1.25,1.81,1.81,0,0,0,1.47.76c.52,0,1.47-.16,6.16-2a6.62,6.62,0,0,0,.68-.3,7.73,7.73,0,0,0,.42.65A4,4,0,0,0,82,66.65a2.88,2.88,0,0,0,2.46-1.44h0a5,5,0,0,0,.95-2.68A1.93,1.93,0,0,0,84.66,61Zm-8.34-.91h.62q.11.53.24,1l-.86.23Z" style="fill:#fff"></path><path d="M101.47,55.84a1.84,1.84,0,0,0-2-1.87l-.31,0v-.21a2.44,2.44,0,0,0-.51-1.61l0,0a2.54,2.54,0,0,0-2-.74h-1.8a2.6,2.6,0,0,0-1.87.68,1.69,1.69,0,0,0-1.37-.63H88a1.6,1.6,0,0,0-1.69,1.62,1.7,1.7,0,0,0,.14.69A1.57,1.57,0,0,0,85.8,55a1.58,1.58,0,0,0,.63,1.3,1.67,1.67,0,0,0-.15.69,1.61,1.61,0,0,0,.32,1,1.63,1.63,0,0,0-.32,1,1.6,1.6,0,0,0,.49,1.18,2.41,2.41,0,0,0-.51,1.56V63.9a2.33,2.33,0,0,0,2.57,2.41h1.92a3.45,3.45,0,0,0,.68-.07,1.63,1.63,0,0,0,1.06.37,4.9,4.9,0,0,0,1.67-.44,13.18,13.18,0,0,0,2.14-1,6.61,6.61,0,0,0,3.46,1.38,1.58,1.58,0,0,0,1.65-1.62,1.63,1.63,0,0,0-.92-1.46q-.79-.42-1.4-.81A9,9,0,0,0,100,61a4.66,4.66,0,0,0,.53-1.84,1.93,1.93,0,0,0-.19-.85A2.82,2.82,0,0,0,101.47,55.84Zm-8,6.89-.14.08v-.25Z" style="fill:#fff"></path><path d="M115.84,55.63h-.75V53.29a2.09,2.09,0,1,0-4.15,0v1.48a1.54,1.54,0,0,0-.65-1,1.7,1.7,0,0,0,.13-.66,1.61,1.61,0,0,0-1.71-1.62h-4.39a1.61,1.61,0,0,0-1.71,1.62,1.7,1.7,0,0,0,.12.63A1.56,1.56,0,0,0,102,55a1.58,1.58,0,0,0,.71,1.35,1.7,1.7,0,0,0-.12.64,1.6,1.6,0,0,0,.32,1,1.67,1.67,0,0,0,.17,2.17,2.4,2.4,0,0,0-.55,1.6v2.09a2.33,2.33,0,0,0,2.57,2.41h2.74a2.34,2.34,0,0,0,2.58-2.41V61.8a2.4,2.4,0,0,0-.54-1.59,1.6,1.6,0,0,0,.5-1.19s0-.08,0-.12h.53v5.4a2.09,2.09,0,1,0,4.15,0v-5.4h.75a1.63,1.63,0,1,0,0-3.26Zm-4.9-.31v.31h-.08A1.65,1.65,0,0,0,110.94,55.32Z" style="fill:#fff"></path><path d="M133.44,59.93V59a2.17,2.17,0,0,0-1.14-2l-.09,0,.18-3.1a2.17,2.17,0,0,0-.71-1.79,2.32,2.32,0,0,0-1.62-.6h-1.95a2,2,0,0,0-1.27-.46,1.9,1.9,0,0,0-1.38.56,1.63,1.63,0,0,0-.7-.09,1.82,1.82,0,0,0-1.08-.35,3,3,0,0,0-.92.2l-.06,0-.44.17a5.73,5.73,0,0,1-.91.12,2,2,0,0,0-1.92,2.28l.15,3-.1,0a2.17,2.17,0,0,0-1.19,2v.95a2.37,2.37,0,0,0,.34,1.28,1.64,1.64,0,0,0,1.31,2.71h2a1.65,1.65,0,0,0,1.41,2.59h1.92A2.46,2.46,0,0,0,128,64v0h3.8a1.64,1.64,0,0,0,1.32-2.69A2.38,2.38,0,0,0,133.44,59.93Z" style="fill:#fff"></path><path d="M149,63.39h0a10,10,0,0,1-2.09-1.24,6.87,6.87,0,0,0,1.18-2.28,2.1,2.1,0,0,0,1.71-2,2.25,2.25,0,0,0-.81-1.59,1.56,1.56,0,0,0,.91-1.45,1.62,1.62,0,0,0-1.71-1.64h-1.73a2.06,2.06,0,1,0-4.11,0H141a1.94,1.94,0,0,0-.49.06h0a2,2,0,1,0-4.06,0v.89h-.44a1.63,1.63,0,1,0,0,3.25h.06a10.59,10.59,0,0,1-1.59,3.51l0,0a1.86,1.86,0,0,0-.38,1.06,1.59,1.59,0,0,0,1.62,1.62,1.54,1.54,0,0,0,.74-.19v1a2,2,0,0,0,2,2.2,2.1,2.1,0,0,0,.93-.21,1.72,1.72,0,0,0,.69.14,5.35,5.35,0,0,0,2.08-.66,13,13,0,0,0,2.14-1.2,11.64,11.64,0,0,0,2.13,1.24,4.77,4.77,0,0,0,1.89.58A1.59,1.59,0,0,0,150,64.86,1.62,1.62,0,0,0,149,63.39Zm-8.47-1.52h.16a1.7,1.7,0,0,0,.78-.18l.34.46a8.63,8.63,0,0,1-1.28.81Zm3.62-4.14a3.43,3.43,0,0,0,.45-.64l0,0,.19.18a2,2,0,0,0-.55.62Z" style="fill:#fff"></path><path d="M46.75,23.77a5.14,5.14,0,0,0-1.62.27,17.44,17.44,0,0,0-5.72-9.5,19.14,19.14,0,0,0-25.35.5A17.25,17.25,0,0,0,8.65,25.51a7.68,7.68,0,0,0-2.13-.32,5.17,5.17,0,0,0-4.74,2.87,6.66,6.66,0,0,0,0,6.14c1.41,2.58,4.66,4.23,9.68,4.92a1.91,1.91,0,0,0,.81,1.74,1.72,1.72,0,0,0,0,1.35,1.78,1.78,0,0,0,1.2,1.11,1.91,1.91,0,0,0,.17.78,2,2,0,0,0,1.91,1.14h.2l2.13,5.66a3.1,3.1,0,0,0,1.24,1.53,3.84,3.84,0,0,0-.38.34,4.64,4.64,0,0,0-1.21,3.16,3.94,3.94,0,0,0,1.32,3.15,4.18,4.18,0,0,0,2.72.92h0a1.67,1.67,0,0,0-.15.9,1.67,1.67,0,0,0-.73,2,7.89,7.89,0,0,0,14.82,0A1.67,1.67,0,0,0,35,61.05a2.37,2.37,0,0,0,1.36-1.92s0-.1,0-.15V57.15a1.68,1.68,0,0,0,.51-1.93,1.67,1.67,0,0,0,.15-.65,2.91,2.91,0,0,0-.84-2.21L36,52.22A3.06,3.06,0,0,0,37,50.89l2.12-5.64c1.5-.27,1.83-1.18,1.89-1.71a1.85,1.85,0,0,0,0-.43,1.88,1.88,0,0,0,.41-.71,1.93,1.93,0,0,0-.06-1.29A2,2,0,0,0,42,39.74s0-.09,0-.14a11.6,11.6,0,0,0,4.68-2.71c2.9-2.53,4.46-5,4.67-7.47a5.15,5.15,0,0,0-.82-3.4A4.39,4.39,0,0,0,46.75,23.77Zm-24,32.07a.15.15,0,1,1-.15-.15A.15.15,0,0,1,22.79,55.84Z" style="fill:#fff"></path><path d="M7.43,22.09a1.68,1.68,0,0,0,0-3.37H1.68a1.68,1.68,0,0,0,0,3.37Z" style="fill:#fff"></path><path d="M8.37,15.3h0a1.68,1.68,0,0,0,2.81-1.85L8,8.64A1.68,1.68,0,0,0,5.21,10.5Z" style="fill:#fff"></path><path d="M12.65,9.56a1.69,1.69,0,0,0,.58-.1L14.35,9l.41,1.12A1.68,1.68,0,0,0,17.92,9L17.5,7.87l1.12-.41A1.68,1.68,0,1,0,17.45,4.3l-1.12.41L15.92,3.6a1.68,1.68,0,0,0-3.16,1.17l.41,1.12-1.12.41a1.68,1.68,0,0,0-1,2.16A1.69,1.69,0,0,0,12.65,9.56Z" style="fill:#fff"></path><path d="M22.41,5.79a1.68,1.68,0,0,0,2.88,1.68l.32-.41.25.44a1.68,1.68,0,0,0,2.93-1.65,1.68,1.68,0,0,0,.29-3.29A1.68,1.68,0,0,0,27.33.26,1.67,1.67,0,0,0,26.2.88l-.14.18L25.95.85A1.68,1.68,0,0,0,23,2.49h-.14a1.68,1.68,0,0,0-.47,3.3Z" style="fill:#fff"></path><path d="M33.68,8.76h0A1.68,1.68,0,0,0,35.77,9.9,1.68,1.68,0,0,0,36.91,7.8l-.3-1,.9,0a1.68,1.68,0,0,0-.12-3.36l-3.07.11a1.67,1.67,0,0,0-1.3.7,1.69,1.69,0,0,0-.25,1.46Z" style="fill:#fff"></path><path d="M39,11.85a1.68,1.68,0,0,0,1.67,1.51h.17L44,13a1.68,1.68,0,0,0,1.41-2.25L44.37,7.9a1.68,1.68,0,1,0-3.16,1.15l.31.85-1,.11A1.69,1.69,0,0,0,39,11.85Z" style="fill:#fff"></path><path d="M53,17.67a1.67,1.67,0,0,0-.24-1.26h0a1.68,1.68,0,0,0-1-.71,1.68,1.68,0,0,0-2.57-1.78l0,0a1.68,1.68,0,0,0-3,.55,1.68,1.68,0,0,0-1.78,2.57l0,0a1.68,1.68,0,0,0,.55,3,1.68,1.68,0,0,0,2.57,1.78l0,0a1.68,1.68,0,0,0,3-.55,1.71,1.71,0,0,0,1.3-.24,1.69,1.69,0,0,0,.48-2.33l0,0A1.67,1.67,0,0,0,53,17.67Z" style="fill:#fff"></path><path d="M34.54,39.77a15.67,15.67,0,0,1,2.05-4,8.94,8.94,0,0,0,1.34-2.6,5.42,5.42,0,0,0-.85-5.26A5.13,5.13,0,0,0,33.67,26a3.13,3.13,0,0,0-1.36.32,2.23,2.23,0,0,1,.16.43,2.82,2.82,0,0,1-.26,2.39,1.85,1.85,0,0,1-1.28.72l-.15,0a1.43,1.43,0,0,1-1-.89,2.49,2.49,0,0,1,.4-1.91l0,0a6.49,6.49,0,0,1,1-.92,5.38,5.38,0,0,0-3.33-1.74h-.1A5,5,0,0,0,24.1,26a3.17,3.17,0,0,1,1.36,1.71v0a2.36,2.36,0,0,1-.29,2,1.5,1.5,0,0,1-1.11.53H24c-1.52-.37-1.59-2.06-1.41-2.91v0a5.49,5.49,0,0,1,.42-1,5.58,5.58,0,0,0-3,.14,5.71,5.71,0,0,0-2.22,1.33,5.62,5.62,0,0,0-1.38,5.42,5.42,5.42,0,0,0,2.18,3c.27.12,1.75.91,2.43,3.92l2.53,9.5v0A5.14,5.14,0,0,0,23.92,51h7.51l3.1-11.25Zm-8.59-2.24a2.94,2.94,0,0,1,3.92-.34.37.37,0,0,1-.43.61,2.22,2.22,0,0,0-2.94.25.37.37,0,0,1-.54-.51ZM24.39,36h-.11a.81.81,0,0,1-.7-.39l-.06-.12-.06-.16,0-.08a2.66,2.66,0,0,1-.08-.81v-.09a1.78,1.78,0,0,1,.51-1.56l.09,0a.82.82,0,0,1,.77.08l.12.1L25,33a.87.87,0,0,1,.07.15,1.35,1.35,0,0,1,.08.17,1.21,1.21,0,0,1,0,.17,4.16,4.16,0,0,1,0,.49c0,.05,0,.31,0,.35,0,.24,0,.56,0,.8a.22.22,0,0,1,0,0,.94.94,0,0,1-.67.76Zm6.86,8.46c-.46,1.32-1,2-1.76,2.12a1.64,1.64,0,0,1-1.29-.48,1.51,1.51,0,0,1-1,.65H27a3.46,3.46,0,0,1-2.16-1.23.37.37,0,0,1,.56-.49c.26.3,1.07,1.06,1.7,1,.27,0,.49-.24.68-.61l-.19-5.56c-.12-.07-.32-.21-.68-.48-.12-.09-.2-.1-.22-.1s-.08.07-.09.11a.37.37,0,0,1-.48.21.38.38,0,0,1-.21-.49,1,1,0,0,1,.58-.55,1,1,0,0,1,.87.22l.53.38.93-.56a.76.76,0,0,1,.61-.14A.85.85,0,0,1,30,39a.37.37,0,1,1-.69.29.52.52,0,0,0-.06-.11l0,0-.88.53.19,5.62c.17.21.54.55.89.5s.81-.63,1.15-1.62a.37.37,0,0,1,.71.24Zm.54-9.86a.22.22,0,0,1,0,0,.94.94,0,0,1-.67.76l-.11,0h-.11a.81.81,0,0,1-.7-.39l-.06-.12a1.44,1.44,0,0,1-.06-.16l0-.08a2.66,2.66,0,0,1-.08-.81s0-.06,0-.09a1.78,1.78,0,0,1,.51-1.56l.09,0a.82.82,0,0,1,.77.08l.12.1.1.14a.9.9,0,0,1,.07.15,1.33,1.33,0,0,1,.08.17,1.23,1.23,0,0,1,0,.17,4.28,4.28,0,0,1,0,.49c0,.05,0,.31,0,.35C31.83,34,31.81,34.34,31.79,34.57Z" style="fill:#eab524"></path><path d="M24.59,29.25a1.71,1.71,0,0,0,.14-1.38,2.43,2.43,0,0,0-1.06-1.28,4.72,4.72,0,0,0-.39.92c0,.17-.29,1.68.81,2A.74.74,0,0,0,24.59,29.25Z" style="fill:#eab524"></path><path d="M48.85,27.16a2.42,2.42,0,0,0-2.1-1.33,4.7,4.7,0,0,0-2.56,1v0c0,.12,0,.24,0,.36v.08c0,.1,0,.2,0,.29.82-.37,2.35-.91,3.4-.35a2.19,2.19,0,0,1,1.06,1.93.37.37,0,0,1-.34.4h0a.37.37,0,0,1-.37-.35,1.49,1.49,0,0,0-.66-1.33c-.84-.45-2.37.17-3.07.53v.1c0,.07,0,.15,0,.22v.15l0,.21,0,.16,0,.2,0,.16,0,.2L44,30l0,.2,0,.16,0,.2,0,.15,0,.21,0,.15-.05.22,0,.13-.07.26,0,.09-.1.35,0,.1-.08.24,0,.14-.07.21-.05.14-.07.19-.06.15-.07.19-.06.15-.08.18-.06.15-.08.18-.07.15-.09.18-.07.15-.09.18-.07.14-.1.19-.07.13-.12.21-.06.11-.19.31,0,.06-.16.25-.07.11-.13.19-.09.13-.12.18-.09.13-.12.17-.1.13-.13.16-.1.13-.13.16-.11.13-.05.07a9.61,9.61,0,0,0,4.84-2.46l0,0c3.09-2.69,3.89-4.79,4-6.07a3.08,3.08,0,0,0-.45-2.12Z" style="fill:#eab524"></path><path d="M13,37.05l-.11-.15-.08-.12-.11-.16-.08-.11-.11-.17-.07-.1L12.26,36l0-.07L12,35.7,12,35.6l-.11-.18-.07-.12-.09-.17L11.66,35l-.08-.16-.07-.13-.08-.16-.06-.13-.08-.16-.06-.13L11.15,34l-.06-.13L11,33.67,11,33.55l-.08-.21,0-.09-.11-.3,0-.11-.07-.2,0-.13-.06-.18,0-.14L10.45,32l0-.14,0-.17,0-.14,0-.17,0-.14,0-.18,0-.13,0-.19,0-.13,0-.11-.08,0a14.07,14.07,0,0,0-2.78-1.25,1.88,1.88,0,0,0-1.66.29A2.27,2.27,0,0,0,5,31.18a.37.37,0,0,1-.34.4h0a.37.37,0,0,1-.37-.34A3,3,0,0,1,5.08,29a2.58,2.58,0,0,1,2.31-.47h0a13,13,0,0,1,2.53,1.09v0l0-.2v-.13l0-.19V28.2a7.44,7.44,0,0,0-3.32-1A3.14,3.14,0,0,0,3.59,29a4.73,4.73,0,0,0,0,4.18c1.18,2.16,4.47,3.54,9.51,4L13,37.17Z" style="fill:#eab524"></path><path d="M28.09,66.06a5.85,5.85,0,0,0,5.27-3.34H22.82A5.85,5.85,0,0,0,28.09,66.06Z" style="fill:#104879"></path><path d="M39.24,38.09a15.22,15.22,0,0,0,4.08-8.29,14.84,14.84,0,0,0,.16-2.15c0-.31,0-.62,0-1C42.91,18.48,35.7,12.05,27,12.05c-9.07,0-16.45,7-16.45,15.6,0,.11,0,.21,0,.32a14.82,14.82,0,0,0,1.23,5.62q.13.29.27.58t.45.86a15.71,15.71,0,0,0,1.7,2.41l.48.54a.37.37,0,0,1-.07.57l-1,.71a3,3,0,0,0,.52.07c.91.06,1.32.09,1.46.46s-.11.57-.5,1l-.08.08c-.15.15-.32.3-.47.43l-.17.15h.08l.66,0a2.17,2.17,0,0,1,.33,0c.5,0,.69.21.77.39.17.42-.2.88-.56,1.23a1.42,1.42,0,0,0-.14.2l.3,0h0a4.13,4.13,0,0,1,.58,0c.17,0,.68,0,.82.39l2.53,6.71v0s.26.78,1.78.8H23.1a6.83,6.83,0,0,1-.32-1.29l-2.53-9.49h0c-.63-2.82-2-3.4-2-3.41l-.06,0a6.08,6.08,0,0,1-2.54-3.46v0c-.62-3.19.54-5.09,1.62-6.13a6.37,6.37,0,0,1,2.52-1.49,7.88,7.88,0,0,1,2.1-.32,4.59,4.59,0,0,1,1.55.25,5.67,5.67,0,0,1,4.43-2h.22a6,6,0,0,1,3.86,2.09,3.88,3.88,0,0,1,1.75-.43,5.8,5.8,0,0,1,4,2.12,6.21,6.21,0,0,1,1,6,9.53,9.53,0,0,1-1.46,2.82h0A15,15,0,0,0,35.25,40l-3,11h1.06c1.52,0,1.77-.77,1.78-.8v0l2.31-6.14,0,0a1.68,1.68,0,0,1,1.22-.76c-.26-.13-.81-.43-.71-.89s.73-.58,1.25-.61h.19A2,2,0,0,0,39,41.5l0,0a.94.94,0,0,1-.41-.94c.13-.51.76-.7.92-.74a1.46,1.46,0,0,0,.41-.18,1.27,1.27,0,0,0-.34-.22l0,0L39,39a.37.37,0,0,1-.08-.59Z" style="fill:#fff"></path><path d="M30.53,28.75a.67.67,0,0,0,.42.39,1.08,1.08,0,0,0,.67-.42A2.19,2.19,0,0,0,31.74,27h0a1.46,1.46,0,0,0-.07-.2,5.81,5.81,0,0,0-.84.76A1.76,1.76,0,0,0,30.53,28.75Z" style="fill:#eab524"></path><path d="M46.75,25.08a5,5,0,0,0-2.63.91C43.25,17.71,35.86,11.31,27,11.31c-9.38,0-17,7.18-17.19,16.06a7.81,7.81,0,0,0-3.31-.87,3.87,3.87,0,0,0-3.59,2.19,5.4,5.4,0,0,0,0,4.89c1.38,2.53,5,4,10.83,4.47l.11.13-.85.61,0,0a.64.64,0,0,0-.19.67c.16.45.79.55,1.32.59l.59,0-.1.11-.08.08c-.13.13-.28.26-.42.39-.41.36-.77.67-.62,1.06s.57.4,1,.4l.73,0h0l.21,0a2.75,2.75,0,0,1-.31.36l0,0c-.16.19-.52.66-.34,1.08a.7.7,0,0,0,.72.37,2.53,2.53,0,0,0,.46,0,3.29,3.29,0,0,1,.45,0h.17l2.48,6.6c.06.2.51,1.31,2.49,1.33h11.7c2,0,2.42-1.13,2.48-1.33l2.3-6.1a1,1,0,0,1,.69-.36h0c.26,0,.88-.13.94-.59s-.38-.65-.75-.8l-.1-.05.33,0c.22,0,.84,0,1-.48s-.34-.89-.66-1.12a.58.58,0,0,1-.16-.19.88.88,0,0,1,.38-.19h0c.23-.07.94-.3,1-.85s-.58-.85-.79-.95l0,0a10.15,10.15,0,0,0,5.93-2.76c2.65-2.31,4.09-4.54,4.26-6.63a3.83,3.83,0,0,0-.6-2.56A3.14,3.14,0,0,0,46.75,25.08ZM3.58,33.22a4.73,4.73,0,0,1,0-4.18,3.14,3.14,0,0,1,2.93-1.8,7.44,7.44,0,0,1,3.32,1v.86l0,.19v.13l0,.2v0a13,13,0,0,0-2.53-1.09h0A2.58,2.58,0,0,0,5.08,29a3,3,0,0,0-.78,2.25.37.37,0,0,0,.37.34h0a.37.37,0,0,0,.34-.4,2.27,2.27,0,0,1,.54-1.63,1.88,1.88,0,0,1,1.66-.29A14.07,14.07,0,0,1,10,30.51l.08,0,0,.11,0,.13,0,.19,0,.13,0,.18,0,.14,0,.17,0,.14,0,.17,0,.14.05.17,0,.14.06.18,0,.13.07.2,0,.11.11.3,0,.09.08.21.05.12.07.17.06.13.07.16.06.13.08.16.06.13.08.16.07.13.08.16.07.12.09.17.07.12.11.18.06.1.17.27,0,.07.13.21.07.1.11.17.08.11.11.16.08.12.11.15.09.12.05.07C8,36.76,4.77,35.38,3.58,33.22ZM31.43,51H23.92a5.14,5.14,0,0,1-.41-1.43v0L21,40.08c-.67-3-2.15-3.79-2.43-3.92a5.42,5.42,0,0,1-2.18-3,5.62,5.62,0,0,1,1.38-5.42A5.71,5.71,0,0,1,20,26.43a5.58,5.58,0,0,1,3-.14,5.49,5.49,0,0,0-.42,1v0c-.18.84-.11,2.53,1.41,2.91h.09a1.5,1.5,0,0,0,1.11-.53,2.36,2.36,0,0,0,.29-2v0A3.17,3.17,0,0,0,24.1,26a5,5,0,0,1,3.74-1.61h.1a5.38,5.38,0,0,1,3.33,1.74,6.49,6.49,0,0,0-1,.92l0,0a2.49,2.49,0,0,0-.4,1.91,1.43,1.43,0,0,0,1,.89l.15,0a1.85,1.85,0,0,0,1.28-.72,2.82,2.82,0,0,0,.26-2.39,2.23,2.23,0,0,0-.16-.43A3.13,3.13,0,0,1,33.67,26a5.13,5.13,0,0,1,3.42,1.84,5.42,5.42,0,0,1,.85,5.26,8.94,8.94,0,0,1-1.34,2.6,15.67,15.67,0,0,0-2.05,4v0ZM23.29,27.51a4.72,4.72,0,0,1,.39-.92,2.43,2.43,0,0,1,1.06,1.28,1.71,1.71,0,0,1-.14,1.38.74.74,0,0,1-.49.26C23,29.2,23.26,27.68,23.29,27.51Zm8.37-.76a1.46,1.46,0,0,1,.07.2h0a2.19,2.19,0,0,1-.13,1.77,1.08,1.08,0,0,1-.67.42.67.67,0,0,1-.42-.39,1.76,1.76,0,0,1,.3-1.24A5.81,5.81,0,0,1,31.67,26.75Zm7.12,12A.37.37,0,0,0,39,39l.61.34,0,0a1.27,1.27,0,0,1,.34.22,1.46,1.46,0,0,1-.41.18c-.16,0-.8.23-.92.74a.94.94,0,0,0,.41.94l0,0a2,2,0,0,1,.28.25h-.19c-.52,0-1.15.16-1.25.61s.45.76.71.89a1.68,1.68,0,0,0-1.22.76l0,0L35,50.2v0s-.26.79-1.78.8H32.2l3-11a15,15,0,0,1,1.92-3.78h0a9.53,9.53,0,0,0,1.46-2.82,6.21,6.21,0,0,0-1-6,5.8,5.8,0,0,0-4-2.12,3.88,3.88,0,0,0-1.75.43,6,6,0,0,0-3.86-2.09h-.22a5.67,5.67,0,0,0-4.43,2,4.59,4.59,0,0,0-1.55-.25,7.88,7.88,0,0,0-2.1.32,6.37,6.37,0,0,0-2.52,1.49c-1.08,1-2.23,2.94-1.62,6.13v0a6.08,6.08,0,0,0,2.54,3.46l.06,0s1.38.59,2,3.41h0l2.53,9.49A6.83,6.83,0,0,0,23.1,51H21.57c-1.52,0-1.77-.77-1.78-.8v0l-2.53-6.71c-.15-.39-.66-.39-.82-.39a4.13,4.13,0,0,0-.58,0h0l-.3,0a1.42,1.42,0,0,1,.14-.2c.35-.35.73-.81.56-1.23-.07-.18-.27-.39-.77-.39a2.17,2.17,0,0,0-.33,0l-.66,0H14.4l.17-.15c.15-.13.32-.28.47-.43l.08-.08c.39-.4.62-.64.5-1s-.55-.39-1.46-.46a3,3,0,0,1-.52-.07l1-.71a.37.37,0,0,0,.07-.57l-.48-.54A15.71,15.71,0,0,1,12.52,35q-.24-.42-.45-.86t-.27-.58A14.82,14.82,0,0,1,10.57,28c0-.11,0-.21,0-.32,0-8.6,7.38-15.6,16.45-15.6,8.68,0,15.89,6.43,16.42,14.64,0,.34,0,.65,0,1a14.84,14.84,0,0,1-.16,2.15,15.22,15.22,0,0,1-4.08,8.29l-.34.35A.37.37,0,0,0,38.79,38.76Zm10.54-9.45c-.13,1.29-.92,3.38-4,6.07l0,0a9.61,9.61,0,0,1-4.84,2.46l.05-.07.11-.13.13-.16.1-.13.13-.16.1-.13.12-.17.09-.13.12-.18.09-.13.13-.19.07-.11.16-.25,0-.06.19-.31.06-.11.12-.21.07-.13.1-.19.07-.14.09-.18.07-.15.09-.18.07-.15.08-.18.06-.15.08-.18.06-.15.07-.19.06-.15.07-.19.05-.14.07-.21,0-.14.08-.24,0-.1.1-.35,0-.09.07-.26,0-.13.05-.22,0-.15,0-.21,0-.15,0-.2,0-.16,0-.2,0-.16,0-.2,0-.16,0-.2,0-.16,0-.21v-.15c0-.07,0-.15,0-.22v-.1c.7-.37,2.23-1,3.07-.53a1.49,1.49,0,0,1,.66,1.33.37.37,0,0,0,.37.35h0a.37.37,0,0,0,.34-.4,2.19,2.19,0,0,0-1.06-1.93c-1.05-.56-2.58,0-3.4.35,0-.1,0-.2,0-.29v-.08c0-.12,0-.24,0-.36v0a4.7,4.7,0,0,1,2.56-1,2.42,2.42,0,0,1,2.1,1.33l0,0A3.08,3.08,0,0,1,49.32,29.31Z"></path><path d="M25.17,35.19a.22.22,0,0,0,0,0c0-.23,0-.55,0-.8,0,0,0-.3,0-.35a4.16,4.16,0,0,0,0-.49,1.21,1.21,0,0,0,0-.17,1.35,1.35,0,0,0-.08-.17A.87.87,0,0,0,25,33l-.1-.14-.12-.1a.82.82,0,0,0-.77-.08l-.09,0a1.78,1.78,0,0,0-.51,1.56v.09a2.66,2.66,0,0,0,.08.81l0,.08.06.16.06.12a.81.81,0,0,0,.7.39h.11l.11,0A.94.94,0,0,0,25.17,35.19Z"></path><path d="M26.22,38.15a.37.37,0,0,0,.27-.12,2.22,2.22,0,0,1,2.94-.25.37.37,0,0,0,.43-.61,2.94,2.94,0,0,0-3.92.34.37.37,0,0,0,.27.63Z"></path><path d="M31,44a.37.37,0,0,0-.47.23c-.34,1-.75,1.56-1.15,1.62s-.71-.29-.89-.5l-.19-5.62.88-.53,0,0a.52.52,0,0,1,.06.11A.37.37,0,1,0,30,39a.85.85,0,0,0-.58-.56.76.76,0,0,0-.61.14l-.93.56-.53-.38a1,1,0,0,0-.87-.22,1,1,0,0,0-.58.55.38.38,0,0,0,.21.49.37.37,0,0,0,.48-.21s.06-.1.09-.11.1,0,.22.1c.36.27.56.4.68.48l.19,5.56c-.19.37-.41.58-.68.61-.63.09-1.44-.67-1.7-1a.37.37,0,0,0-.56.49A3.46,3.46,0,0,0,27,46.72h.2a1.51,1.51,0,0,0,1-.65,1.64,1.64,0,0,0,1.29.48c.73-.1,1.3-.79,1.76-2.12A.37.37,0,0,0,31,44Z"></path><path d="M33.92,62H22.26a.37.37,0,0,0-.35.5,6.58,6.58,0,0,0,12.36,0,.37.37,0,0,0-.35-.5Zm-5.83,4.08a5.85,5.85,0,0,1-5.27-3.34H33.37A5.85,5.85,0,0,1,28.09,66.06Z"></path><path d="M34.14,52.85H21.87a3,3,0,0,0-2.22.84,3.35,3.35,0,0,0-.84,2.24,2.69,2.69,0,0,0,.86,2.16,2.92,2.92,0,0,0,1.87.61,3.12,3.12,0,0,0,.49,0,.37.37,0,0,0-.12-.74,2.46,2.46,0,0,1-1.76-.41,2,2,0,0,1-.59-1.6h0a2.6,2.6,0,0,1,.63-1.7,2.25,2.25,0,0,1,1.69-.61H34.16a.91.91,0,0,1,.59.23.94.94,0,0,1,.22.71.37.37,0,1,0,.75,0,1.52,1.52,0,0,0-1.57-1.69Z"></path><path d="M22.64,54.38a1.46,1.46,0,1,0,1.46,1.46A1.46,1.46,0,0,0,22.64,54.38Zm0,2.18a.71.71,0,1,1,.71-.72A.72.72,0,0,1,22.64,56.55Z" style="fill:#221714"></path><path d="M26.34,54.63a3.14,3.14,0,0,0-1.42-.25.37.37,0,0,0-.37.37v2.18a.37.37,0,0,0,.35.37H25c1.27,0,2.05-.51,2.05-1.34A1.39,1.39,0,0,0,26.34,54.63Zm-1,1.91V55.14a1.86,1.86,0,0,1,.7.16.64.64,0,0,1,.34.67C26.33,56.39,25.69,56.51,25.3,56.54Z"></path><path d="M28.3,56.93V54.75a.37.37,0,0,0-.75,0v2.18a.37.37,0,1,0,.75,0Z"></path><path d="M29.38,57.3a.37.37,0,0,0,.37-.37V55.65L31.1,57a.37.37,0,0,0,.64-.26v-2a.37.37,0,0,0-.75,0v1.08l-1.34-1.34a.37.37,0,0,0-.64.26v2.18A.37.37,0,0,0,29.38,57.3Z"></path><path d="M35.31,55.47H33.46a.37.37,0,1,0,0,.75h.65a.71.71,0,1,1-.61-1.09.71.71,0,0,1,.44.16.37.37,0,0,0,.46-.58,1.46,1.46,0,1,0-.91,2.6,1.45,1.45,0,0,0,.81-.24V59c0,.05-.08.29-.53.29h-4v-.34h1.61a.37.37,0,0,0,0-.75h-2a.37.37,0,0,0-.37.37v2.18a.37.37,0,0,0,.37.37h2a.37.37,0,1,0,0-.75H29.75V60h4A1.16,1.16,0,0,0,35,59V56.21h.26a.37.37,0,0,0,0-.75Z"></path><path d="M26.6,58.17h-.16l-.1.07h0a.37.37,0,0,0-.08.12v0l0,.05a.36.36,0,0,0,0,.08v2.18a.37.37,0,0,0,.75,0v-.28c1.33-.05,1.48-.74,1.49-1a1.08,1.08,0,0,0-.3-.81,2.18,2.18,0,0,0-1.57-.41Zm.37.75a1.13,1.13,0,0,1,.66.18.35.35,0,0,1,.08.27c0,.21-.41.29-.74.31Z"></path><path d="M24.19,58.17a.37.37,0,0,0-.33.2l-1.11,2.18a.37.37,0,1,0,.66.34l.12-.24h1.31l.12.24a.37.37,0,1,0,.66-.34l-1.11-2.18A.37.37,0,0,0,24.19,58.17Zm-.27,1.73.27-.54.27.54Z"></path><path d="M7.8,20.41A.37.37,0,0,0,7.43,20H1.68a.37.37,0,1,0,0,.75H7.43A.37.37,0,0,0,7.8,20.41Z"></path><path d="M9.46,14.57a.37.37,0,0,0,.62-.41L6.93,9.37a.37.37,0,0,0-.62.41Z"></path><path d="M12.65,8.25l.13,0,2.35-.87L16,9.7a.37.37,0,0,0,.35.24l.13,0a.37.37,0,0,0,.22-.48L15.82,7.1l2.34-.87a.37.37,0,1,0-.26-.7l-2.35.87L14.7,4.05a.37.37,0,0,0-.7.26l.87,2.35-2.35.87a.37.37,0,0,0,.13.72Z"></path><path d="M22.87,4.55H25L23.67,6.2a.37.37,0,1,0,.59.46l1.53-1.94L27,6.86a.37.37,0,0,0,.65-.37l-1.1-1.94h2.07a.37.37,0,0,0,0-.75h-2.1l1.31-1.65a.37.37,0,1,0-.59-.46L25.89,3.4,24.81,1.5a.37.37,0,1,0-.65.37l1.1,1.94H22.87a.37.37,0,0,0,0,.75Z"></path><path d="M34.93,8.39a.37.37,0,0,0,.36.27l.11,0a.37.37,0,0,0,.25-.46l-.78-2.63,2.59-.1a.37.37,0,0,0,0-.75l-3.07.11A.37.37,0,0,0,34,5.3Z"></path><path d="M40.64,12.05h0l3.2-.32a.37.37,0,0,0,.31-.5L43.14,8.35a.37.37,0,1,0-.7.26L43.33,11l-2.73.27a.37.37,0,0,0,0,.74Z"></path><path d="M51.11,17,50,17.73l-.89-1.35,1.13-.74a.37.37,0,1,0-.41-.62l-1.13.75L48,14.68a.37.37,0,1,0-.62.41l.71,1.07-1.35.89L46,15.93a.37.37,0,0,0-.62.41l.75,1.13-1.07.71a.37.37,0,0,0,.41.62l1.07-.71.89,1.35-1.13.74a.37.37,0,0,0,.41.62l1.13-.75.71,1.07a.37.37,0,0,0,.62-.41l-.71-1.07,1.35-.89.74,1.13a.37.37,0,1,0,.62-.41l-.74-1.13,1.07-.71a.37.37,0,1,0-.41-.62Zm-3,2-.89-1.35,1.35-.89.89,1.35Z"></path><path d="M31.77,32.93a1.23,1.23,0,0,0,0-.17,1.33,1.33,0,0,0-.08-.17.9.9,0,0,0-.07-.15l-.1-.14-.12-.1a.82.82,0,0,0-.77-.08l-.09,0A1.78,1.78,0,0,0,30,33.74s0,.06,0,.09a2.66,2.66,0,0,0,.08.81l0,.08a1.44,1.44,0,0,0,.06.16l.06.12a.81.81,0,0,0,.7.39H31l.11,0a.94.94,0,0,0,.67-.76.22.22,0,0,0,0,0c0-.23,0-.55,0-.8,0,0,0-.3,0-.35A4.28,4.28,0,0,0,31.77,32.93Z"></path><path d="M57.39,48.1q-.85,0-.84-.7t.84-.67h1.28a2.71,2.71,0,0,0,2.59-1.66q1-2,1-7.11,0-1.19-.06-2.45a24,24,0,0,1-3.47,4q-1.4,1.25-1.84,1.25-.67,0-.67-.7a1.06,1.06,0,0,1,.26-.58,26.86,26.86,0,0,0,5.16-8.13,23.42,23.42,0,0,0-.84-3q-3.23,2.86-4.08,2.86-.67,0-.67-.64a.67.67,0,0,1,.29-.58,26.26,26.26,0,0,0,3.5-3.79A24.94,24.94,0,0,0,57,22.35a.9.9,0,0,1-.29-.55.62.62,0,0,1,.7-.7q1.11,0,3.53,3.29L62.4,21.5a1.25,1.25,0,0,1,1.19-.64,2,2,0,0,1,1.31.47,1.47,1.47,0,0,1,.52,1.08q0,1.46-3,4.31a25.07,25.07,0,0,1,2.8,12q0,6.12-1.84,8.19a4.3,4.3,0,0,1-3.35,1.17ZM77.23,37.5a9.31,9.31,0,0,0,1,3.67,13.58,13.58,0,0,0,2.1-2,1.65,1.65,0,0,1,1.11-.67,1.33,1.33,0,0,1,.93.38,1.37,1.37,0,0,1,.44,1,1.23,1.23,0,0,1-.55,1A20.28,20.28,0,0,1,79,42.63a13.37,13.37,0,0,0,4.22,4.11.86.86,0,0,1,.44.64q0,.7-.67.7-1.08,0-3.87-2.27a13.35,13.35,0,0,1-4.81-7.6,17.48,17.48,0,0,1-1.81,1.54v5.13l3-.67q.7,0,.7.67,0,.44-.67.7Q68.93,48.16,67,48.16q-1,0-1-1.19a.92.92,0,0,1,.67-1q.44-.12,3.12-.52V41.58a13.34,13.34,0,0,1-3.85,1.6q-.67,0-.67-.73a.7.7,0,0,1,.47-.61,16,16,0,0,0,5.62-4.34H69.39q-2.59,0-2.59-2.3V33.39q0-2.3,2.59-2.3h10q2.59,0,2.59,2.3V35.2q0,2.3-2.59,2.3ZM72.8,27.74V24.65h-5q-.82,0-.82-.7t.82-.67h5v-.64q0-1.86,1.54-1.86t1.57,1.86v.64h5.83q.84,0,.85.67t-.85.7H75.92v3.09H82.8q.84,0,.82.7t-.82.67H66.34q-.85,0-.84-.67t.84-.7ZM79,33.65a1.63,1.63,0,0,0-.2-1,1.55,1.55,0,0,0-1-.2H71a1.48,1.48,0,0,0-1,.2,1.46,1.46,0,0,0-.23,1v1.25a1.54,1.54,0,0,0,.2,1,1.46,1.46,0,0,0,1,.23h6.76a1.48,1.48,0,0,0,1-.2,1.53,1.53,0,0,0,.23-1Z"></path><path d="M90.91,33.39a2.43,2.43,0,0,1,2.77-2.74h8.59Q105,30.65,105,33v3.55q0,2.33-2.71,2.33H93.82A15.69,15.69,0,0,1,91.37,46q-1.31,2-2,2t-.67-.7a11,11,0,0,0,.61-1.37A19.17,19.17,0,0,0,90.91,38Zm10.78-5.86q.84,0,.84.7t-.84.67H94.2q-1,0-.82-.84-3,2-3.93,2-.64,0-.64-.67,0-.41.58-.79a19.91,19.91,0,0,0,6.26-6.58,2.82,2.82,0,0,1,2.56-1.28,3.35,3.35,0,0,1,1.92.44,4.85,4.85,0,0,1,1,1.37,15.35,15.35,0,0,0,5,5.07q.55.44.55.76,0,.7-.64.7a7.68,7.68,0,0,1-2.74-1.19,20.27,20.27,0,0,1-4.52-3.61q-.44-.44-.64-.44t-.55.41a23.12,23.12,0,0,1-3.55,3.26Zm3.73,17.83q0,2.33-2.71,2.33H96.09q-2.74,0-2.74-2.33V42.95q0-2.36,2.74-2.36h6.61q2.71,0,2.71,2.36ZM102,34.09v-.82a1.7,1.7,0,0,0-.2-1,1.59,1.59,0,0,0-1-.23H95.16a1.53,1.53,0,0,0-1,.23,1.69,1.69,0,0,0-.2,1v.82Zm-8,1.37v2.07h6.76a1.58,1.58,0,0,0,1-.23,1.55,1.55,0,0,0,.2-1v-.84Zm8.48,7.72a1.53,1.53,0,0,0-.23-1,1.47,1.47,0,0,0-1-.23H97.61a1.53,1.53,0,0,0-1,.23,1.69,1.69,0,0,0-.2,1v1.89a1.69,1.69,0,0,0,.2,1,1.53,1.53,0,0,0,1,.23h3.58a1.47,1.47,0,0,0,1-.23,1.53,1.53,0,0,0,.23-1Zm7.78-2.13q0,1.81-1.43,1.81t-1.43-1.81V24.62q0-1.84,1.4-1.84t1.46,1.84Zm5.13,4.28a2.61,2.61,0,0,1-.87,2.24,3.75,3.75,0,0,1-2.3.55h-3q-.85,0-.84-.67t.84-.67H111A1.46,1.46,0,0,0,112,46.5a1.58,1.58,0,0,0,.29-1.11V22.7q0-1.92,1.52-1.92t1.49,1.92Z"></path><path d="M132.2,22.7q0-2,1.57-2t1.66,2v4.46h9.64a3.15,3.15,0,0,1,2.83,1.14,3.69,3.69,0,0,1,.38,1.89q0,11.22-1.17,14.65a4.19,4.19,0,0,1-2.36,2.8,7.39,7.39,0,0,1-2.86.41h-3.76q-.85,0-.84-.7t.84-.64h2.91a2.54,2.54,0,0,0,2.33-1.11,12.66,12.66,0,0,0,1.19-5q.38-3.76.38-10.87,0-1.22-1.17-1.22h-8.36a30.14,30.14,0,0,1-1.31,9.35,17.18,17.18,0,0,1-8,9.09,9.3,9.3,0,0,1-3.35,1.43q-.67,0-.67-.7,0-.44.67-.76a16.44,16.44,0,0,0,7.87-8.16q1.4-3.44,1.54-10.26h-9.09q-.85,0-.84-.7t.84-.64h9.09Z"></path><path d="M58.4,64.47q0,.82-.73.82t-.73-.82V59.69a10.15,10.15,0,0,1-1.15,1.87q-.59.73-.84.73t-.32-.33a.69.69,0,0,1,.15-.33,11.46,11.46,0,0,0,2.06-5H55.24q-.4,0-.4-.32t.4-.33h1.7v-2.2q-1.1.07-1.63.07t-.4-.32q0-.3.41-.36a14.66,14.66,0,0,0,2.73-.52l.66-.22a3.31,3.31,0,0,1,.54-.16.61.61,0,0,1,.48.22.75.75,0,0,1,.18.48.51.51,0,0,1-.36.52,5.49,5.49,0,0,1-1.15.18V56h1.1q.4,0,.4.33t-.4.32H58.4A9.59,9.59,0,0,0,60,60.26a.53.53,0,0,1,.11.27q0,.32-.33.32T58.4,59.21ZM64.52,61h2.26q.4,0,.4.32t-.4.33H64.52v2.51h2.85q.4,0,.4.33t-.4.32H59.76q-.38,0-.38-.32t.38-.33H63V61.66H60.84q-.38,0-.38-.33t.38-.32H63V58.75h-2.5q-.4,0-.4-.33t.4-.32h6.55q.37,0,.37.32t-.37.33H64.52Zm2.63-5.09q0,1.11-1.28,1.11H61.79q-1.28,0-1.28-1.11v-2a1.09,1.09,0,0,1,.3-.86,1.5,1.5,0,0,1,1-.25h4.09q1.28,0,1.28,1.11ZM65.69,54q0-.37-.11-.47a.72.72,0,0,0-.48-.11H62.53a.72.72,0,0,0-.48.11q-.11.1-.11.47V55.8a.75.75,0,0,0,.11.48.72.72,0,0,0,.48.11H65.1a.72.72,0,0,0,.48-.11.75.75,0,0,0,.11-.48Z"></path><path d="M75,63q3-.75,2.84-.75.3,0,.3.32t-.95.59a29.36,29.36,0,0,1-5.68,1.93.5.5,0,0,1-.43-.23.73.73,0,0,1-.15-.47.59.59,0,0,1,.51-.6l1-.21,1-.21v-4.6h-1.8q-.4,0-.4-.32t.4-.32h5.15q.4,0,.4.32t-.4.32H75Zm8.55-7.75q.4,0,.4.32t-.4.33H79.21a15.32,15.32,0,0,0,1.66,6.78q.67,1.07,1.1,1.07t.66-.93A3.86,3.86,0,0,1,82.9,62a.52.52,0,0,1,.44-.18,1,1,0,0,1,.51.15.63.63,0,0,1,.26.51,3.86,3.86,0,0,1-.74,2,1.63,1.63,0,0,1-1.37.85A2.75,2.75,0,0,1,79.84,64q-1.7-2.36-2.17-8.07H71.4q-.4,0-.4-.33t.4-.32h6.23q-.1-1.45-.1-2,0-.92.82-.92t.78.88q0,1.26,0,2.09Zm-1-.58a.86.86,0,0,1-.56.22q-.37,0-.74-.66A6.57,6.57,0,0,0,80.42,53a.47.47,0,0,1-.14-.32.27.27,0,0,1,.3-.3,2.9,2.9,0,0,1,1,.47q1.28.71,1.28,1.22A.76.76,0,0,1,82.59,54.66Z"></path><path d="M92.13,54.73q.4,0,.4.32t-.4.33H87.51q-.4,0-.4-.33t.4-.32ZM92,63.9Q92,65,90.75,65H88.82q-1.26,0-1.26-1.1V61.74q0-1.11,1.26-1.11h1.92q1.28,0,1.28,1.11Zm-.38-11.14q.38,0,.38.32t-.38.33H88q-.38,0-.38-.33t.38-.32Zm0,4q.38,0,.38.32t-.38.32H88q-.38,0-.38-.32t.38-.32Zm0,2q.38,0,.38.3t-.38.33H88q-.38,0-.38-.33t.38-.3Zm-1,3.16a.46.46,0,0,0-.59-.59h-.47a.72.72,0,0,0-.48.11.8.8,0,0,0-.1.48v1.91a.8.8,0,0,0,.1.48.72.72,0,0,0,.48.11h.47a.75.75,0,0,0,.49-.11.8.8,0,0,0,.1-.48Zm2.17-2.76q-.4,0-.4-.3t.4-.33H98.4a.9.9,0,0,1,.64.23.61.61,0,0,1,.22.48,3.85,3.85,0,0,1-.41,1.3,7.84,7.84,0,0,1-1.69,2.39,15.83,15.83,0,0,0,2.72,1.74.33.33,0,0,1,.22.3q0,.32-.34.32a6.88,6.88,0,0,1-3.43-1.65,11.68,11.68,0,0,1-2.62,1.36,4.83,4.83,0,0,1-1.22.36q-.32,0-.32-.33a.32.32,0,0,1,.26-.32,9.51,9.51,0,0,0,3-1.74q-1.89-1.74-1.89-2.79a.68.68,0,0,1,.29-.56,1.06,1.06,0,0,1,.58-.16.76.76,0,0,1,.74.55,6.9,6.9,0,0,0,1.15,2,4.76,4.76,0,0,0,1.23-2.65q0-.25-.27-.25Zm.84-5.31q0-1.08,1.22-1.08h1.8a1.31,1.31,0,0,1,1,.32,1.19,1.19,0,0,1,.21.77V56.3q0,.36.15.44a.87.87,0,0,0,.45.07q.32,0,.38-.62a2.44,2.44,0,0,1,.14-.66.51.51,0,0,1,.49-.25q.66,0,.66.56,0,1.62-1.29,1.62H97.7q-1.22,0-1.22-1.08V53.92q0-.37-.11-.47a.81.81,0,0,0-.47-.1h-.26q-.34,0-.43.14a1.79,1.79,0,0,0-.08.63,4,4,0,0,1-2,3.71,1.2,1.2,0,0,1-.38.14q-.3,0-.3-.32a.6.6,0,0,1,.22-.36,3.83,3.83,0,0,0,1-3.06Z"></path><path d="M109.25,54.73q.4,0,.4.32t-.4.33h-5.53q-.4,0-.4-.33t.4-.32Zm-.11,9.15q0,1.1-1.28,1.1h-2.74q-1.26,0-1.26-1.1V61.8q0-1.11,1.26-1.11h2.74q1.28,0,1.28,1.11Zm-.44-11.13q.4,0,.4.32t-.4.33h-4.39q-.4,0-.4-.33t.4-.32Zm0,4q.4,0,.4.33t-.4.32h-4.39q-.4,0-.4-.32t.4-.33Zm0,2q.4,0,.4.32t-.4.33h-4.39q-.4,0-.4-.33t.4-.32Zm-1,3.21a.8.8,0,0,0-.1-.47.72.72,0,0,0-.48-.11H105.9a.69.69,0,0,0-.47.11.66.66,0,0,0-.12.47v1.84a.48.48,0,0,0,.59.59h1.18a.66.66,0,0,0,.48-.12.73.73,0,0,0,.1-.47Zm6.12,2.39q0,1-.75,1t-.78-1V57.59h-2.39q-.4,0-.4-.33t.4-.32h2.39V53.29q0-1,.75-1t.78,1v3.65h2.06q.4,0,.4.32t-.4.33h-2.06Z"></path><path d="M125.16,61.69q0-.84.75-.84a.77.77,0,0,1,.29.05q.51-.49.51-.59t-.14-.12h-3.91q-.38,0-.38-.32t.38-.33h5.86q.58,0,.58.47a.56.56,0,0,1-.3.44,21.06,21.06,0,0,1-2.17,1.07.76.76,0,0,1,0,.16V62h5.1q.4,0,.4.33t-.4.32h-5.1V64q0,1.25-1.39,1.25h-1.92q-.4,0-.4-.33t.4-.32h1.21a.69.69,0,0,0,.48-.12.72.72,0,0,0,.12-.48V62.62h-5.21q-.4,0-.4-.32t.4-.33h5.21ZM119.61,59a.87.87,0,0,1,.47-.88A2,2,0,0,1,121,58l-.21-4.14q0-.86.7-.91a6.62,6.62,0,0,0,1.22-.18l.51-.19a2.67,2.67,0,0,1,.52-.14.52.52,0,0,1,.4.18.64.64,0,0,1,.15.4.45.45,0,0,1-.3.47,4.67,4.67,0,0,1-.91.11,4,4,0,0,0-.74.08q-.15,0-.12.22l0,.74h1.26q.38,0,.38.32t-.36.33h-1.26l.05,1h1.18q.38,0,.38.32a.28.28,0,0,1-.32.32h-1.22l0,1.06h7.07l.05-1.06h-1.18q-.4,0-.4-.32t.33-.32h1.29l.05-1.08h-1.28q-.4,0-.4-.33t.37-.32h1.34l0-.8q0-.37-.37-.37h-1q-.4,0-.4-.33t.4-.32h1.76a1,1,0,0,1,.74.26.86.86,0,0,1,.29.74L130.84,58a1.84,1.84,0,0,1,.85.15.87.87,0,0,1,.44.86v.93q0,.86-.74.86t-.73-.86v-.75a.42.42,0,0,0-.54-.54h-8.52a.67.67,0,0,0-.44.1.7.7,0,0,0-.1.44v.77q0,.85-.74.85t-.73-.85Zm7.05-3.62a.51.51,0,0,1,.36-.14.69.69,0,0,1,.47.18.6.6,0,0,1,.19.44q0,.29-.59.7.58.41.58.69a.63.63,0,0,1-.18.44.64.64,0,0,1-.44.19.53.53,0,0,1-.44-.23,5.12,5.12,0,0,0-.44-.56,5.57,5.57,0,0,1-1.95.78.28.28,0,0,1-.32-.32.29.29,0,0,1,.19-.29,11.46,11.46,0,0,0,1.43-.81l-.47-.37a.3.3,0,0,1-.1-.22q0-.34.33-.34a3,3,0,0,1,.85.43Q126.45,55.62,126.66,55.38Zm-.3-2.84a.56.56,0,0,1,.49-.23.68.68,0,0,1,.45.18.59.59,0,0,1,.22.45q0,.27-.7.89.55.4.55.69a.65.65,0,0,1-.19.45.58.58,0,0,1-.45.22.52.52,0,0,1-.44-.26l-.33-.38a4.8,4.8,0,0,1-1.58.95.27.27,0,0,1-.3-.3.38.38,0,0,1,.12-.27,12.21,12.21,0,0,0,1.17-1,7.93,7.93,0,0,0-.65-.58.37.37,0,0,1-.11-.25.28.28,0,0,1,.32-.32,3.47,3.47,0,0,1,1,.47Q126.06,53,126.36,52.54Z"></path><path d="M139.24,64.41q0,.89-.71.89t-.73-.89v-5a14.75,14.75,0,0,1-1.15,2q-.63.88-.89.88a.28.28,0,0,1-.32-.32.7.7,0,0,1,.15-.32A13,13,0,0,0,137.73,56h-1.67q-.4,0-.4-.3t.4-.33h1.74v-2.2q0-.89.71-.89t.73.89v2.2h1.06q.4,0,.4.33t-.4.3h-1a10.8,10.8,0,0,0,1.62,3.91.76.76,0,0,1,.14.3q0,.33-.32.33t-1.47-1.77Zm6-5.49q.16-.7.73-.7a1,1,0,0,1,.58.18.7.7,0,0,1,.32.58q0,1.25-1.77,3.29a10,10,0,0,0,3.33,2.31q.23.11.23.29,0,.33-.3.33a4.63,4.63,0,0,1-1.36-.47A10.2,10.2,0,0,1,144.38,63a10.84,10.84,0,0,1-2.69,1.67,5.6,5.6,0,0,1-1.55.55q-.32,0-.32-.33t.25-.29a9.76,9.76,0,0,0,3.55-2.35q-1.92-2.14-1.92-3.35a.7.7,0,0,1,.25-.52.87.87,0,0,1,.58-.21.72.72,0,0,1,.71.6,8.83,8.83,0,0,0,1.11,2.5A7.19,7.19,0,0,0,145.28,58.92Zm-4.8-.52a.48.48,0,0,1,.19-.3A8.21,8.21,0,0,0,142,56.3a3.16,3.16,0,0,1,.37-.62.6.6,0,0,1,.44-.15.82.82,0,0,1,.54.19.59.59,0,0,1,.25.48q0,.47-1.28,1.52a4.66,4.66,0,0,1-1.47,1A.29.29,0,0,1,140.47,58.4Zm3.18-4V53.15q0-.84.75-.84t.74.84v1.29h3q.4,0,.4.33t-.4.32H141q-.38,0-.38-.33t.38-.32Zm4.61,3.9a.71.71,0,0,1-.51.23q-.3,0-.82-.77a9.27,9.27,0,0,0-1.4-1.66.45.45,0,0,1-.16-.27q0-.33.32-.33a5.45,5.45,0,0,1,1.5.89q1.3.95,1.3,1.39A.71.71,0,0,1,148.27,58.34Z"></path></g></svg>