<svg xmlns="http://www.w3.org/2000/svg" viewBox="0 0 130 130"><title>首頁</title><g id="&#x5716;&#x5C64;_2" data-name="&#x5716;&#x5C64; 2"><g id="surface1"><path d="M25,13a4,4,0,0,1,4-4h88a4,4,0,0,1,4,4V61H73v4h48v4a4,4,0,0,1-4,4H73v4h8.61l4.5,12H73v4H95V89H90.39l-4.5-12H117a8,8,0,0,0,8-8V13a8,8,0,0,0-8-8H29a8,8,0,0,0-8,8V37h4Z" style="fill:#2d9d9b"></path><path d="M7,125H53a2,2,0,0,0,1.41-.59l14-14a2,2,0,0,0,.4-.59,1.66,1.66,0,0,0,.07-.19,2,2,0,0,0,.1-.52s0-.08,0-.12V43a2,2,0,0,0-2-2H7a2,2,0,0,0-2,2v80A2,2,0,0,0,7,125Zm48-6.83V111h7.17ZM9,45H65v62H53a2,2,0,0,0-2,2v12H9Z" style="fill:#2d9d9b"></path><path d="M13,49h8v4H13Z" style="fill:#2d9d9b"></path><path d="M13,57h8v4H13Z" style="fill:#2d9d9b"></path><path d="M65,31H97v4H65Z" style="fill:#2d9d9b"></path><path d="M73,41H89v4H73Z" style="fill:#2d9d9b"></path><path d="M81,21h32v4H81Z" style="fill:#2d9d9b"></path><path d="M93,41h20v4H93Z" style="fill:#2d9d9b"></path><path d="M73,51H97v4H73Z" style="fill:#2d9d9b"></path><path d="M101,51h12v4H101Z" style="fill:#2d9d9b"></path><path d="M101,31h12v4H101Z" style="fill:#2d9d9b"></path><path d="M65,21H77v4H65Z" style="fill:#2d9d9b"></path><path d="M48,76.71a2,2,0,0,0,0-3.43l-9-5.42V65h1a7,7,0,0,0,0-14H34a7,7,0,0,0,0,14h1v2.87l-9,5.42a2,2,0,0,0,0,3.43l9,5.42V85H27a2,2,0,0,0-2,2V97a2,2,0,0,0,2,2h8v4H34a7,7,0,0,0,0,14h6a7,7,0,0,0,0-14H39V99h8a2,2,0,0,0,2-2V87a2,2,0,0,0-2-2H39V82.13ZM34,61a3,3,0,0,1,0-6h6a3,3,0,0,1,0,6Zm6,46a3,3,0,0,1,0,6H34a3,3,0,0,1,0-6Zm5-18v6H29V89ZM37,78.67,30.89,75,37,71.33,43.11,75Z" style="fill:#2d9d9b"></path><path d="M29,13h4v4H29Z" style="fill:#2d9d9b"></path><path d="M37,13h4v4H37Z" style="fill:#2d9d9b"></path><path d="M45,13h4v4H45Z" style="fill:#2d9d9b"></path><path d="M75,125h48a2,2,0,0,0,2-2V99a2,2,0,0,0-2-2H75a2,2,0,0,0-2,2v24A2,2,0,0,0,75,125Zm2-24h44v20H77Z" style="fill:#2d9d9b"></path><path d="M81,113h4v4H81Z" style="fill:#2d9d9b"></path><path d="M113,113h4v4h-4Z" style="fill:#2d9d9b"></path><path d="M81,105h4v4H81Z" style="fill:#2d9d9b"></path><path d="M89,105h4v4H89Z" style="fill:#2d9d9b"></path><path d="M97,105h4v4H97Z" style="fill:#2d9d9b"></path><path d="M105,105h4v4h-4Z" style="fill:#2d9d9b"></path><path d="M113,105h4v4h-4Z" style="fill:#2d9d9b"></path><path d="M89,113h20v4H89Z" style="fill:#2d9d9b"></path><path d="M35.59,21.59l-6,6a2,2,0,0,0,0,2.83l6,6,2.83-2.83L33.83,29l4.59-4.59Z" style="fill:#2d9d9b"></path><path d="M54.41,36.41l6-6a2,2,0,0,0,0-2.83l-6-6-2.83,2.83L56.17,29l-4.59,4.59Z" style="fill:#2d9d9b"></path><path d="M41.06,36.52l4-16,3.88,1-4,16Z" style="fill:#2d9d9b"></path></g></g></svg>